<?xml version="1.0" encoding="UTF-8"?>
<svg version="1.1" xmlns="http://www.w3.org/2000/svg" width="1254" height="1254">
<path d="M0 0 C413.82 0 827.64 0 1254 0 C1254 413.82 1254 827.64 1254 1254 C840.18 1254 426.36 1254 0 1254 C0 840.18 0 426.36 0 0 Z " fill="#161B34" transform="translate(0,0)"/>
<path d="M0 0 C413.82 0 827.64 0 1254 0 C1254 413.82 1254 827.64 1254 1254 C840.18 1254 426.36 1254 0 1254 C0 840.18 0 426.36 0 0 Z M250 27 C248.75715687 27.15427088 247.51431374 27.30854176 246.2338087 27.46748751 C190.97132412 34.53135142 142.26221597 57.57925184 102 96 C101.41637695 96.55494141 100.83275391 97.10988281 100.23144531 97.68164062 C92.16026879 105.40419881 84.910306 113.41995817 78.22753906 122.37109375 C77.09000654 123.88056412 75.91746073 125.36347507 74.7421875 126.84375 C43.8886416 166.21243223 30.74117467 214.06291026 26 263 C25.91691399 263.85068242 25.83382798 264.70136483 25.74822421 265.57782551 C25.08347878 272.86751715 24.85669472 280.07733903 24.86857224 287.39464092 C24.8665196 288.58890382 24.86446697 289.78316671 24.86235213 291.01361939 C24.85769562 294.30732081 24.8574483 297.60098728 24.85912972 300.89469042 C24.85986563 304.48645889 24.85482665 308.07822023 24.8505547 311.66998559 C24.84300095 318.78468655 24.84078298 325.89937999 24.84022565 333.01408454 C24.83930936 341.54078583 24.83263383 350.06748023 24.82587883 358.59417854 C24.80984084 379.20378845 24.80391732 399.81339761 24.79913008 420.42301265 C24.79679116 430.18336208 24.79318811 439.94371092 24.7894347 449.70405989 C24.77659896 483.14854985 24.76588152 516.59303949 24.7624321 550.03753185 C24.76221047 552.13595906 24.76198869 554.23438626 24.76176675 556.33281346 C24.76154611 558.43617808 24.76132563 560.5395427 24.7611053 562.64290732 C24.76066276 566.86228001 24.76021564 571.0816527 24.75976562 575.30102539 C24.75965623 576.3471798 24.75954684 577.39333422 24.75943414 578.47119028 C24.75580761 612.35411649 24.73990294 646.23702126 24.71657526 680.11993926 C24.69192838 715.98492412 24.67825694 751.84989673 24.67706418 787.7148903 C24.67689274 791.65925968 24.67667732 795.60362905 24.67642975 799.54799843 C24.67637398 800.51913655 24.67631821 801.49027468 24.67626075 802.49084123 C24.6751143 818.06023891 24.66412665 833.62961443 24.64954269 849.19900465 C24.63511049 864.87878277 24.63197833 880.55853277 24.63998267 896.23831572 C24.64440801 905.52964286 24.64070399 914.82087865 24.62474416 924.11219361 C24.6148822 930.34722456 24.61627733 936.58219261 24.62618039 942.81722319 C24.63149325 946.35116131 24.63254753 949.88492612 24.61967167 953.41884878 C24.57618482 968.16287608 25.02712061 982.76177863 26.34328079 997.44310474 C26.40210657 998.11503161 26.46093236 998.78695848 26.52154074 999.47924677 C28.30514498 1019.40004962 32.38180565 1039.11746424 39 1058 C39.391875 1059.24910156 39.78375 1060.49820312 40.1875 1061.78515625 C51.98671735 1098.63732012 76.01951405 1137.149209 105.8984375 1162.20703125 C108.36373491 1164.31032403 110.70079274 1166.53110985 113.0625 1168.75 C152.84123408 1204.86777916 206.09656311 1223.54766712 258.96142578 1227.76635742 C261 1228 261 1228 263.30331463 1228.50669642 C265.99942848 1228.99989545 268.44749049 1229.12560055 271.18554008 1229.12649983 C272.21721008 1229.12925958 273.24888009 1229.13201932 274.31181282 1229.13486269 C275.44081459 1229.13280737 276.56981637 1229.13075205 277.73303032 1229.12863445 C278.94078438 1229.13038749 280.14853844 1229.13214053 281.39289111 1229.13394669 C284.75700361 1229.13780744 288.1210617 1229.13717295 291.48517196 1229.13466892 C295.14094147 1229.13303816 298.79670515 1229.13717478 302.45247281 1229.14057809 C308.86407795 1229.1457375 315.27567555 1229.14714835 321.68728256 1229.14612198 C331.22237936 1229.14459932 340.75746778 1229.14875392 350.29256294 1229.1539966 C368.3164808 1229.16367938 386.34039582 1229.16648125 404.36431597 1229.16705366 C418.28991684 1229.16751302 432.21551659 1229.16957041 446.1411171 1229.17275429 C450.14828495 1229.17365184 454.15545281 1229.17454165 458.16262066 1229.17542917 C459.65692181 1229.17576074 459.65692181 1229.17576074 461.18141086 1229.17609901 C489.215407 1229.18225592 517.24940274 1229.18619933 545.28339958 1229.18575573 C546.34091742 1229.18574015 547.39843526 1229.18572457 548.4879991 1229.18570852 C553.84799111 1229.18562541 559.20798313 1229.18552637 564.56797515 1229.18542381 C565.63249071 1229.18540387 566.69700627 1229.18538392 567.79377989 1229.18536337 C569.94649614 1229.18532294 572.0992124 1229.18528114 574.25192865 1229.18523798 C607.71173934 1229.18462583 641.17153987 1229.19211962 674.63134766 1229.20581055 C712.22480634 1229.22118652 749.81825836 1229.22977576 787.4117204 1229.22884732 C791.42454664 1229.2287727 795.43737288 1229.22872399 799.45019913 1229.22869301 C800.43825164 1229.22868135 801.42630415 1229.2286697 802.44429765 1229.22865769 C818.3182447 1229.22862697 834.19218291 1229.2350027 850.06612733 1229.24362527 C866.03895711 1229.25212166 882.01177403 1229.25307629 897.98460482 1229.24651595 C907.46238691 1229.24283271 916.94012982 1229.24461574 926.41790773 1229.25445829 C932.76471069 1229.26048967 939.1114855 1229.25912802 945.45828721 1229.25198779 C949.06436047 1229.24813255 952.67035833 1229.24725348 956.27642606 1229.25544515 C977.83706633 1229.30120461 999.04022321 1228.37719945 1020.3125 1224.6875 C1021.58593262 1224.4694873 1022.85936523 1224.25147461 1024.17138672 1224.02685547 C1034.00066542 1222.28845411 1043.51919414 1220.11364641 1053 1217 C1053.78987305 1216.74492676 1054.57974609 1216.48985352 1055.39355469 1216.22705078 C1081.12444269 1207.83567152 1105.18712544 1196.0984671 1127 1180 C1127.89211182 1179.34330322 1127.89211182 1179.34330322 1128.80224609 1178.67333984 C1147.93084433 1164.44680729 1165.06075066 1147.34493164 1179 1128 C1179.44053711 1127.38930664 1179.88107422 1126.77861328 1180.33496094 1126.14941406 C1201.31243816 1096.83454348 1215.04712074 1065.11077445 1223 1030 C1223.16483887 1029.29907227 1223.32967773 1028.59814453 1223.49951172 1027.87597656 C1229.03189088 1004.0662098 1229.46074877 978.83894376 1229.38540266 954.52527474 C1229.37760744 950.89213083 1229.38764335 947.25902083 1229.39513266 943.62588215 C1229.40584056 937.29407776 1229.40571887 930.96235044 1229.39799118 924.63054276 C1229.38653071 915.21411261 1229.3925028 905.79774615 1229.4016161 896.38131627 C1229.4173295 879.55275017 1229.41607782 862.72421846 1229.40737936 845.89564916 C1229.39980502 831.16786604 1229.39787542 816.44009546 1229.4014473 801.71231079 C1229.40167645 800.73186168 1229.40190561 799.75141257 1229.40214171 798.74125288 C1229.40307586 794.7603656 1229.40403108 790.77947833 1229.405021 786.79859107 C1229.41417894 749.52527243 1229.40590794 712.25197557 1229.38973031 674.9786603 C1229.37549562 641.93074885 1229.37676959 608.88287209 1229.39111328 575.83496094 C1229.40720946 538.62577756 1229.41352922 501.4166134 1229.40427649 464.20742702 C1229.40331447 460.23418109 1229.40237594 456.26093515 1229.4014473 452.28768921 C1229.40121006 451.30951769 1229.40097283 450.33134617 1229.40072841 449.3235331 C1229.39732929 434.61221866 1229.40128188 419.90091821 1229.40888596 405.18960571 C1229.41749751 388.44663644 1229.41524771 371.70370664 1229.39904372 354.96074224 C1229.39029338 345.61335779 1229.38957419 336.26605901 1229.40098225 326.91867695 C1229.40778366 320.64949782 1229.40339114 314.38038638 1229.39046794 308.11121717 C1229.38343431 304.55647725 1229.38067005 301.00190553 1229.39168589 297.44717181 C1229.45075376 272.97099905 1228.58711199 247.93285286 1223 224 C1222.81099121 223.14519043 1222.62198242 222.29038086 1222.42724609 221.40966797 C1214.75036183 186.90210275 1200.55312718 154.1309802 1179 126 C1178.5270752 125.37754395 1178.05415039 124.75508789 1177.56689453 124.11376953 C1163.57486807 105.89636053 1146.78954984 88.29649449 1128 75 C1126.41251953 73.84757812 1126.41251953 73.84757812 1124.79296875 72.671875 C1116.79831764 66.98764906 1108.51938911 61.85017704 1100 57 C1099.27538574 56.58572754 1098.55077148 56.17145508 1097.80419922 55.74462891 C1085.94090576 49.03574946 1073.96068398 44.15548134 1061 40 C1052.73796707 37.30571322 1052.73796707 37.30571322 1049.42578125 35.93359375 C1046.08973371 34.64967207 1042.66312248 33.86308279 1039.1875 33.0625 C1038.53330078 32.90587891 1037.87910156 32.74925781 1037.20507812 32.58789062 C1024.37578714 29.59240036 1011.55029261 27.47785641 998.42663288 26.33588886 C997.72235617 26.27295581 997.01807946 26.21002275 996.29246103 26.14518264 C981.61162342 24.85365903 966.98367463 24.57127394 952.24746659 24.6207987 C948.60929879 24.62953535 944.97116017 24.62034702 941.33299381 24.61373454 C934.99579099 24.60455754 928.65866808 24.60619347 922.32146645 24.61546707 C912.89763596 24.62921891 903.47386536 24.62545223 894.05003025 24.61850847 C877.21098415 24.60665377 860.37197579 24.61161266 843.53293181 24.62378674 C828.80408971 24.63436172 814.07526042 24.63885729 799.34641457 24.63749123 C798.36589291 24.6374072 797.38537125 24.63732317 796.37513682 24.63723659 C792.3940955 24.63688429 788.41305419 24.63650027 784.43201289 24.63607101 C747.17222059 24.63211565 709.91245092 24.64478008 672.65266509 24.66559757 C639.59111023 24.68398258 606.52957701 24.68977422 573.46801758 24.68432617 C571.3429914 24.68397974 569.21796522 24.68363364 567.09293904 24.68328788 C566.04233319 24.68311689 564.99172734 24.68294589 563.90928495 24.68276971 C558.62002047 24.68191609 553.33075599 24.68109231 548.04149151 24.68030071 C546.99786043 24.68014363 545.95422935 24.67998655 544.87897309 24.67982471 C517.19334094 24.67583149 489.50771085 24.68131408 461.82207996 24.689812 C458.84213635 24.69071898 455.86219274 24.69162463 452.88224912 24.69252724 C450.90571814 24.69312834 448.92918716 24.69373696 446.95265618 24.69435314 C433.20235544 24.69856612 419.45205879 24.69915634 405.70175761 24.69724765 C387.98761927 24.69480079 370.27350285 24.69890891 352.55937048 24.71445765 C343.20301537 24.72248206 333.84669674 24.72512854 324.49033948 24.7198153 C318.22929257 24.71682323 311.9682777 24.72118795 305.70723844 24.73136387 C302.14818257 24.73695233 298.5892007 24.73955517 295.03014442 24.73319729 C279.89132074 24.71292946 265.02411278 25.06128398 250 27 Z " fill="#FDFDFD" transform="translate(0,0)"/>
<path d="M0 0 C1.37662442 -0.00083097 2.75324872 -0.00329894 4.12986755 -0.00730896 C6.99858889 -0.01014933 9.86652184 0.00436016 12.73510742 0.03198242 C16.38884819 0.06609622 20.04118455 0.06002027 23.69499302 0.04131985 C26.53231763 0.03068909 29.36932239 0.03974158 32.20661736 0.05470467 C34.20109143 0.06231342 36.19560466 0.05507826 38.19007874 0.04747009 C48.74838542 0.18359154 56.01482203 2.47754138 63.76953125 9.70703125 C70.41173622 16.84232567 72.87398918 24.64080458 72.81586266 34.35959911 C72.81936873 35.11034203 72.8228748 35.86108496 72.82648712 36.63457766 C72.83577989 39.1464488 72.83088332 41.65808701 72.82601929 44.16996765 C72.82975662 45.9906204 72.83435848 47.81127155 72.83974993 49.63192016 C72.85198515 54.63245138 72.85171884 59.63291572 72.84936118 64.6334585 C72.84895314 70.02762723 72.85999095 75.42177449 72.86947632 80.81593323 C72.88609044 91.38353491 72.89158606 101.95111427 72.89270107 112.51872792 C72.8936514 121.10923241 72.89776095 129.69972954 72.90410233 138.2902317 C72.92171629 162.647278 72.93094102 187.00430667 72.92944138 211.36135938 C72.92936147 212.67450092 72.92928155 213.98764246 72.92919922 215.34057617 C72.92911746 216.65532167 72.9290357 217.97006716 72.92895146 219.32465342 C72.92813864 240.62980839 72.94727493 261.93487319 72.97547595 283.2400116 C73.00420577 305.11733627 73.01801617 326.99462646 73.0162884 348.87197047 C73.01562451 361.15384552 73.02111649 373.43564645 73.0426445 385.7175045 C73.06085759 396.17521251 73.06520256 406.63281281 73.05162565 417.09052982 C73.04509656 422.42466739 73.04497684 427.75859832 73.06233215 433.09271622 C73.07807035 437.98015821 73.07519142 442.86722985 73.05776389 447.75466285 C73.05469565 449.51845253 73.0583197 451.2822699 73.06948404 453.04602691 C73.14360665 465.59146684 72.68828473 477.41748774 63.41796875 486.9453125 C57.0228779 492.73582543 51.27657369 495.86449391 42.40478516 495.90356445 C41.20979401 495.91309647 40.01480286 495.92262848 38.78359985 495.93244934 C36.86624527 495.93108223 36.86624527 495.93108223 34.91015625 495.9296875 C33.5702603 495.93358045 32.23036557 495.93791635 30.89047241 495.94267273 C28.08807366 495.95011328 25.28580092 495.94985978 22.48339844 495.94458008 C18.91040014 495.93879245 15.33792142 495.95570927 11.76500893 495.97892475 C8.99900346 495.99373187 6.23312107 495.99452431 3.46708298 495.99141502 C1.51519229 495.99217103 -0.43667944 496.00598805 -2.38851929 496.02009583 C-12.50464493 495.9676431 -20.34889699 494.3254024 -28.00390625 487.16796875 C-37.18091527 477.39445414 -37.0195461 466.08894328 -36.95606995 453.44787598 C-36.9613994 451.59433137 -36.96846739 449.74079109 -36.977117 447.88725901 C-36.99571796 442.80975865 -36.98944808 437.73255048 -36.97896397 432.65503812 C-36.97196484 427.17300974 -36.98797526 421.69104094 -37.0009613 416.20903015 C-37.02259399 405.47604482 -37.02247635 394.74316554 -37.01433576 384.01016557 C-37.00803417 375.28669929 -37.00917426 366.56326393 -37.01560783 357.83979797 C-37.01650949 356.59790291 -37.01741114 355.35600784 -37.01834012 354.07647958 C-37.02019133 351.55353923 -37.02205389 349.03059888 -37.02392768 346.50765854 C-37.03579603 329.5713428 -37.04020887 312.63503977 -37.02899265 295.69872284 C-37.02855468 295.03683093 -37.02811671 294.37493901 -37.02766547 293.69298977 C-37.02405882 288.31831797 -37.02022396 282.94364634 -37.01637454 277.56897471 C-37.00152528 256.60176168 -37.01031101 235.63467891 -37.03833008 214.66748047 C-37.06976668 191.09793751 -37.08465753 167.52845273 -37.07453007 143.95888472 C-37.07350752 141.44526133 -37.07251291 138.93163793 -37.07154655 136.41801453 C-37.07107016 135.18128601 -37.07059377 133.9445575 -37.07010295 132.67035237 C-37.06793879 123.95805139 -37.07774293 115.24581108 -37.09231758 106.53352356 C-37.10983327 95.9151383 -37.10973426 85.29693008 -37.08696593 74.67855179 C-37.07581736 69.26157221 -37.07267552 63.84490463 -37.09126663 58.42793846 C-37.10807275 53.46723986 -37.10171823 48.50712539 -37.07704984 43.54646462 C-37.07216668 41.75386786 -37.0756819 39.96122398 -37.08853728 38.16866666 C-37.16577682 26.55875108 -36.19123007 17.84399936 -28.25390625 8.81640625 C-19.70417975 1.05292035 -11.25415687 -0.11493588 0 0 Z " fill="#AE69FA" transform="translate(766.44140625,381.37109375)"/>
<path d="M0 0 C1.35180858 -0.00083112 2.70361703 -0.00329964 4.05541992 -0.00730896 C6.87287226 -0.0101492 9.68952185 0.0043567 12.50683594 0.03198242 C16.09098516 0.06606389 19.67370142 0.06003091 23.25791931 0.04131985 C26.04467396 0.03067493 28.83110381 0.03975473 31.61782837 0.05470467 C33.57292375 0.06229775 35.528059 0.0550864 37.4831543 0.04747009 C47.30398881 0.17618969 55.83793814 1.92273845 63.2109375 8.7890625 C69.81355543 16.37402115 71.96775341 23.27297361 71.94672108 33.16314888 C71.94907331 33.91694883 71.95142554 34.67074878 71.95384905 35.44739115 C71.96052354 37.98163502 71.96008129 40.51582743 71.95967102 43.05007935 C71.9629706 44.88209196 71.96669637 46.71410384 71.9708125 48.5461148 C71.98082974 53.58728275 71.98454885 58.62843878 71.98720181 63.66961527 C71.99110563 69.10401318 72.00068386 74.53840168 72.00941467 79.97279358 C72.02917596 93.0995362 72.03924446 106.22627959 72.04814246 119.35303336 C72.05252555 125.53401001 72.05789227 131.71498579 72.06313133 137.89596176 C72.08014259 158.44131098 72.09463725 178.98665967 72.10188007 199.53201485 C72.10378998 204.86346563 72.10570865 210.19491642 72.10766602 215.52636719 C72.10802624 216.51989551 72.10802624 216.51989551 72.10839374 217.53349512 C72.11628594 239.00652395 72.13971681 260.47949754 72.17222196 281.95250225 C72.20653434 304.66087662 72.22623136 327.36921871 72.22952431 350.07761943 C72.23169001 362.4539535 72.24044752 374.83020635 72.26598549 387.20651627 C72.28768207 397.74554262 72.29574796 408.28446802 72.28601871 418.82351418 C72.28147115 424.20004805 72.28338698 429.57637359 72.30278015 434.95287895 C72.32039155 439.8779662 72.31943036 444.80269281 72.30388286 449.72778378 C72.30150375 451.50642292 72.30584606 453.2850869 72.31771151 455.06368805 C72.3911206 466.79735388 72.06337792 478.13176965 63.515625 487.1328125 C57.11400534 492.75625362 50.25616603 495.86570196 41.65869141 495.90356445 C40.46370026 495.91309647 39.26870911 495.92262848 38.0375061 495.93244934 C36.12015152 495.93108223 36.12015152 495.93108223 34.1640625 495.9296875 C32.82416655 495.93358045 31.48427182 495.93791635 30.14437866 495.94267273 C27.34197991 495.95011328 24.53970717 495.94985978 21.73730469 495.94458008 C18.16430639 495.93879245 14.59182767 495.95570927 11.01891518 495.97892475 C8.25290971 495.99373187 5.48702732 495.99452431 2.72098923 495.99141502 C0.76909854 495.99217103 -1.18277319 496.00598805 -3.13461304 496.02009583 C-14.18093421 495.96281998 -20.76163268 493.85160748 -28.9140625 486.17578125 C-35.25077243 479.07692408 -37.34044853 471.52689424 -37.32451439 462.23612213 C-37.32716622 461.485464 -37.32981804 460.73480586 -37.33255023 459.96140051 C-37.34024415 457.43181469 -37.34080244 454.90227741 -37.34140015 452.37268066 C-37.34541471 450.54636844 -37.34985293 448.72005711 -37.3546797 446.89374685 C-37.3666518 441.86365349 -37.37229514 436.83356971 -37.37686086 431.80346489 C-37.38281456 426.3826624 -37.39442502 420.9618714 -37.40515137 415.54107666 C-37.42968108 402.44357647 -37.44430357 389.34607247 -37.45721143 376.24855638 C-37.46092302 372.54958907 -37.46489628 368.85062213 -37.4689641 365.1516552 C-37.49420078 342.18473814 -37.51625532 319.2178205 -37.52869225 296.25089264 C-37.53162198 290.93028257 -37.53458104 285.60967252 -37.53759766 280.2890625 C-37.53796857 279.628053 -37.53833947 278.9670435 -37.53872162 278.2860034 C-37.55049525 257.52787069 -37.57924258 236.76981451 -37.61962891 216.01171875 C-37.66499049 192.68978169 -37.69307105 169.36790113 -37.69861281 146.04591894 C-37.70202678 133.69802118 -37.71378048 121.35025313 -37.74671555 109.00239563 C-37.77471937 98.48605068 -37.78571386 87.96986203 -37.77452008 77.45348269 C-37.76933432 72.08893746 -37.77221527 66.72471953 -37.79698563 61.36022186 C-37.81949244 56.4448462 -37.81872687 51.5300327 -37.79978175 46.61464709 C-37.79698378 44.84066752 -37.80256897 43.06664972 -37.81759469 41.29273158 C-37.91451139 29.10103609 -37.00150219 18.74677297 -28.5 9.19140625 C-20.31993601 1.08389272 -11.04758778 -0.11504263 0 0 Z " fill="#AD68FA" transform="translate(457.1875,381.37109375)"/>
<path d="M0 0 C1.20935715 -0.00524185 2.41871429 -0.0104837 3.66471863 -0.0158844 C6.21730789 -0.0222929 8.76992672 -0.02098286 11.32250977 -0.01245117 C15.20708458 -0.00395738 19.09018021 -0.03269627 22.97460938 -0.06445312 C25.46223915 -0.06606582 27.9498715 -0.0654863 30.4375 -0.0625 C31.58885941 -0.07373398 32.74021881 -0.08496796 33.9264679 -0.09654236 C43.41231209 -0.01548462 51.70603398 1.99789116 58.81640625 8.5859375 C63.50483537 13.99478378 67.53474165 20.36254618 67.55218983 27.64791203 C67.55664767 28.51160029 67.56110551 29.37528854 67.56569844 30.26514918 C67.56551408 31.21454463 67.56532972 32.16394009 67.56513977 33.1421051 C67.56881646 34.1503337 67.57249315 35.15856231 67.57628125 36.19734329 C67.58733629 39.59193512 67.59116504 42.98649636 67.5949707 46.38110352 C67.60123405 48.80864052 67.60788073 51.23617656 67.61488342 53.66371155 C67.63412508 60.96105044 67.64471464 68.25838681 67.65361121 75.55574337 C67.65799557 78.99382248 67.66336208 82.43190005 67.66860008 85.86997795 C67.68561374 97.30245551 67.70010652 108.73493211 67.70734882 120.16742039 C67.70925867 123.13415592 67.71117901 126.10089145 67.71313477 129.06762695 C67.71361851 129.80497981 67.71410225 130.54233266 67.71460065 131.30202954 C67.7228957 143.23880559 67.74822308 155.17548126 67.78071544 167.1122135 C67.81381712 179.37299332 67.83180048 191.63372219 67.83499306 203.89454693 C67.83715553 210.77622795 67.84586522 217.65776269 67.87145424 224.5394001 C67.89548263 231.01626421 67.89896737 237.49293677 67.88869286 243.9698391 C67.8881974 246.34417216 67.89452058 248.71851816 67.9082489 251.09281158 C67.92597525 254.34092059 67.91885713 257.58808665 67.90571594 260.8361969 C67.91668519 261.7699773 67.92765443 262.70375771 67.93895608 263.66583449 C67.85353948 272.44493631 65.23918531 280.38082052 59.19921875 286.8984375 C53.481405 291.82629014 47.2237856 294.53286848 39.71240234 294.62646484 C37.95444839 294.65055923 37.95444839 294.65055923 36.16098022 294.67514038 C30.79107207 294.71968395 25.42130966 294.76110734 20.05126953 294.78369141 C17.2228128 294.79699339 14.39508395 294.82477713 11.56689453 294.86572266 C7.48327643 294.92483153 3.40043032 294.94239047 -0.68359375 294.95703125 C-2.56843979 294.99103531 -2.56843979 294.99103531 -4.49136353 295.02572632 C-13.53478612 295.00408347 -19.14816999 293.12267769 -26.0703125 287.36328125 C-26.97330078 286.34621094 -26.97330078 286.34621094 -27.89453125 285.30859375 C-28.50941406 284.64601563 -29.12429688 283.9834375 -29.7578125 283.30078125 C-34.60850754 275.67677662 -36.17726808 267.82359166 -36.08996582 258.91490173 C-36.09620578 257.91617194 -36.10244575 256.91744215 -36.1088748 255.88844782 C-36.12470799 252.57374097 -36.11223835 249.25977941 -36.09960938 245.94506836 C-36.10503474 243.55575637 -36.11215972 241.16644773 -36.12084961 238.77714539 C-36.13715037 232.98060532 -36.13482737 227.18429828 -36.12319905 221.38775127 C-36.11413739 216.67412347 -36.11295247 211.96055366 -36.11729431 207.24691963 C-36.11790724 206.57410911 -36.11852018 205.90129858 -36.11915168 205.20809986 C-36.12043068 203.84098603 -36.12172753 202.47387222 -36.12304205 201.10675842 C-36.13442657 188.31132292 -36.12136721 175.51600236 -36.09984058 162.72058571 C-36.08196741 151.75759535 -36.08507957 140.79477443 -36.10351562 129.83178711 C-36.12495302 117.07821176 -36.13333242 104.32473692 -36.12106657 91.57114607 C-36.11979247 90.20958143 -36.11853498 88.84801677 -36.11729431 87.4864521 C-36.11667721 86.81666118 -36.11606011 86.14687026 -36.11542431 85.45678265 C-36.1119803 80.75199095 -36.1177791 76.04726338 -36.12721252 71.34248161 C-36.13878904 65.00333507 -36.13071183 58.66450774 -36.1076355 52.32539558 C-36.10235834 50.00267186 -36.1038451 47.67992115 -36.11268616 45.35720825 C-36.12366397 42.17954672 -36.10985019 39.00289954 -36.08996582 35.82530212 C-36.10335015 34.45616264 -36.10335015 34.45616264 -36.11700487 33.05936378 C-35.98973661 22.5290014 -32.0235574 14.70637781 -24.58203125 7.43359375 C-16.99361161 0.41430559 -9.93657761 -0.02520251 0 0 Z " fill="#7085FA" transform="translate(311.58203125,488.56640625)"/>
<path d="M0 0 C1.60284348 -0.01925285 1.60284348 -0.01925285 3.23806763 -0.03889465 C4.3891098 -0.04628159 5.54015198 -0.05366852 6.72607422 -0.0612793 C7.91748016 -0.06935104 9.10888611 -0.07742279 10.33639526 -0.08573914 C12.85982818 -0.09956947 15.38327973 -0.11029632 17.90673828 -0.11816406 C21.7453207 -0.13533947 25.58303339 -0.17923281 29.42138672 -0.22338867 C31.87710957 -0.23351939 34.33283973 -0.24203431 36.78857422 -0.2487793 C37.92747101 -0.26628738 39.0663678 -0.28379547 40.23977661 -0.30183411 C48.96087835 -0.27837226 55.64607139 1.47817192 62.90576172 6.36450195 C71.07027676 14.71457415 73.96159678 22.61345523 73.92318726 34.12565613 C73.92771837 35.12349178 73.93224948 36.12132743 73.9369179 37.14940053 C73.94957176 40.49092356 73.94794086 43.8322838 73.94628906 47.17382812 C73.95227376 49.57062998 73.95907917 51.96742991 73.96664429 54.36422729 C73.98248325 60.19848619 73.98875305 66.03269576 73.98986904 71.86697509 C73.99082057 76.61216701 73.99493607 81.35734563 74.00127029 86.10253334 C74.01887928 99.56906336 74.02810993 113.03556155 74.02660935 126.50210317 C74.02652943 127.22763471 74.02644952 127.95316625 74.02636719 128.70068359 C74.02628543 129.42710579 74.02620366 130.15352798 74.02611943 130.90196297 C74.02530706 142.6665168 74.04443309 154.43094244 74.07264392 166.19545921 C74.10141134 178.2879741 74.11518203 190.38042655 74.11345637 202.47297651 C74.1127937 209.25682668 74.11823143 216.04054254 74.13981247 222.8243618 C74.1592062 229.20774026 74.15931119 235.59083553 74.14477921 241.97422409 C74.14269133 244.31265871 74.14739066 246.65111111 74.15950012 248.9895153 C74.17500139 252.19115022 74.16561146 255.39181463 74.15023804 258.59342957 C74.16052516 259.51057792 74.17081229 260.42772628 74.18141115 261.37266701 C74.08024154 270.96026297 71.27374169 279.46511924 64.58154297 286.45825195 C56.11776073 294.01213468 47.91002477 295.49045439 36.82763672 295.51293945 C35.68345276 295.51959625 34.5392688 295.52625305 33.3604126 295.53311157 C30.94309085 295.54321926 28.5257413 295.54792918 26.10839844 295.54760742 C22.4323053 295.55197045 18.75742312 295.5882844 15.08154297 295.6262207 C12.7260783 295.63209143 10.37060796 295.63605911 8.01513672 295.63793945 C6.9262616 295.65231049 5.83738647 295.66668152 4.71551514 295.68148804 C-5.4228275 295.62155994 -13.25401345 292.96972463 -20.65673828 285.9699707 C-27.52721142 278.67009299 -28.64284041 271.63267527 -28.61839294 262.03179932 C-28.62362962 261.01284034 -28.6288663 259.99388135 -28.63426167 258.94404483 C-28.64925837 255.53109755 -28.64996676 252.11830023 -28.65063477 248.70532227 C-28.65825647 246.25763699 -28.66668398 243.80995412 -28.67585754 241.36227417 C-28.69780848 234.71339878 -28.70662425 228.06458367 -28.71168399 221.41568089 C-28.71494504 217.26098978 -28.72146996 213.10630789 -28.72868538 208.95162201 C-28.74824636 197.43924382 -28.76465361 185.92687418 -28.76756191 174.4144783 C-28.76774948 173.67830184 -28.76793705 172.94212537 -28.76813031 172.18364052 C-28.76849655 170.69135777 -28.76886025 169.19907502 -28.76922142 167.70679227 C-28.76940423 166.96606302 -28.76958704 166.22533378 -28.76977539 165.4621582 C-28.76995594 164.72052062 -28.77013649 163.97888304 -28.77032251 163.2147716 C-28.77386334 151.20055552 -28.80088219 139.18651876 -28.83827328 127.17236486 C-28.87639079 114.82560154 -28.89571964 102.47892713 -28.89602143 90.13210368 C-28.89660521 83.20460995 -28.90504594 76.27733018 -28.93401909 69.34989166 C-28.96115185 62.83272478 -28.96240858 56.31590709 -28.94636345 49.79867935 C-28.94454839 47.40983024 -28.9512447 45.02095682 -28.96718216 42.63216019 C-28.98765116 39.36432043 -28.97708449 36.09796091 -28.95896912 32.83013916 C-28.97216908 31.89062322 -28.98536905 30.95110728 -28.99896902 29.98312116 C-28.89060118 21.39148866 -25.81496288 14.58624492 -19.96923828 8.30200195 C-14.00204874 2.78982686 -8.13084741 0.08533012 0 0 Z " fill="#6788FA" transform="translate(907.34423828125,488.822998046875)"/>
<path d="M0 0 C1.33367679 -0.00457017 2.66735124 -0.00987821 4.00102234 -0.0158844 C6.78910925 -0.02478788 9.57690933 -0.02242587 12.36499023 -0.01245117 C15.91215474 -0.00098842 19.45831966 -0.02114403 23.00535297 -0.05036831 C25.75860231 -0.06885068 28.51161765 -0.06841381 31.26491356 -0.06273079 C33.20010478 -0.0625058 35.13527439 -0.07929912 37.07038879 -0.09654236 C46.14629183 -0.02546847 52.95728354 1.57828996 60.57421875 6.55859375 C67.68704409 13.99472934 71.63386433 22.25892346 71.59164429 32.52238464 C71.5961754 33.33222803 71.60070651 34.14207142 71.60537493 34.97645551 C71.61802611 37.68773097 71.61639809 40.39880573 71.61474609 43.11010742 C71.62073101 45.05518858 71.62753647 47.00026736 71.63510132 48.94534302 C71.65277507 54.22862043 71.65745736 59.51183305 71.65873289 64.79513717 C71.66015459 68.097703 71.6644246 71.40025236 71.66972733 74.7028141 C71.68823411 86.22970246 71.69639737 97.75654455 71.69482422 109.28344727 C71.69362354 120.01877233 71.71470976 130.75389611 71.74631155 141.48917025 C71.77249185 150.71229057 71.78319073 159.93534523 71.7819134 169.1585024 C71.78140416 174.66411717 71.7870659 180.16955317 71.8082695 185.67513084 C71.82768061 190.85689815 71.82775658 196.03831674 71.81323624 201.22009659 C71.81115042 203.11711068 71.81583543 205.01414676 71.82795715 206.91112328 C71.91166981 220.92454454 70.84011643 230.71112787 60.76953125 241.296875 C54.7233224 246.58006389 47.59705914 248.52407562 39.70458984 248.62646484 C38.01165298 248.65055923 38.01165298 248.65055923 36.28451538 248.67514038 C31.12019833 248.71981108 25.9559665 248.76109695 20.79150391 248.78369141 C18.07371052 248.79699007 15.35667523 248.82477156 12.63916016 248.86572266 C8.70868256 248.92493116 4.7785642 248.94240214 0.84765625 248.95703125 C-0.35686188 248.97970062 -1.56138 249.00237 -2.80239868 249.02572632 C-13.19996591 248.99990281 -21.29714891 245.81222609 -28.67578125 238.43359375 C-33.6791483 231.59054857 -35.97606782 225.7896268 -35.95666504 217.24436951 C-35.96260728 216.4236866 -35.96854953 215.60300368 -35.97467184 214.75745159 C-35.99200495 212.00940218 -35.99505882 209.26152745 -35.99804688 206.51342773 C-36.00730634 204.54203419 -36.01735608 202.57064423 -36.02813721 200.59925842 C-36.05436408 195.24354903 -36.06727158 189.88788976 -36.07615852 184.53212619 C-36.0820249 181.1833121 -36.09023556 177.83451164 -36.09916687 174.48570442 C-36.1265145 164.00026274 -36.14584752 153.51485228 -36.15357065 143.0293774 C-36.16252444 130.94045217 -36.19758624 118.85198008 -36.25557184 106.76319259 C-36.29887162 97.41010603 -36.31898281 88.05714663 -36.32165289 78.70396096 C-36.32374475 73.12216486 -36.33546798 67.54079478 -36.37129211 61.95910454 C-36.40436764 56.7033478 -36.40851043 51.44833464 -36.3910141 46.1925106 C-36.38947924 44.27052054 -36.39808112 42.34848958 -36.4179306 40.42660141 C-36.53517357 28.3606514 -36.02378613 18.32220917 -27.38755035 8.95049191 C-18.87237 0.71213297 -11.48095601 -0.02660555 0 0 Z " fill="#FB5EC2" transform="translate(610.67578125,513.56640625)"/>
<path d="M0 0 C0.94843781 -0.01283524 1.89687561 -0.02567047 2.87405396 -0.03889465 C3.89385345 -0.04628159 4.91365295 -0.05366852 5.96435547 -0.0612793 C7.02258514 -0.06935104 8.08081482 -0.07742279 9.17111206 -0.08573914 C11.41207245 -0.09956459 13.65305376 -0.11029362 15.89404297 -0.11816406 C18.17503064 -0.1296662 20.45599177 -0.15008976 22.73681641 -0.1796875 C26.04201453 -0.2225717 29.34641288 -0.23856408 32.65185547 -0.2487793 C33.65950958 -0.26628738 34.6671637 -0.28379547 35.70535278 -0.30183411 C45.36307875 -0.27262616 53.33938501 2.43689812 60.44873047 9.11450195 C66.09314335 15.73727974 68.32051405 23.18897337 68.34698486 31.76017761 C68.35269501 32.87168182 68.35840515 33.98318604 68.36428833 35.12837219 C68.36596512 36.94331429 68.36596512 36.94331429 68.36767578 38.79492188 C68.37512314 40.71776001 68.37512314 40.71776001 68.38272095 42.67944336 C68.39580752 46.19003684 68.40228282 49.70061122 68.40673161 53.21122527 C68.40966897 55.40822271 68.41377507 57.60521501 68.41823578 59.80220985 C68.43190216 66.68678359 68.44157246 73.57134548 68.44543767 80.45593184 C68.44991352 88.38305788 68.46744293 96.31001106 68.49643826 104.23708457 C68.51811251 110.37742179 68.52814504 116.5177106 68.52947879 122.65808564 C68.53052291 126.31928148 68.53634611 129.98031465 68.5542984 133.64146996 C68.57396553 137.73178833 68.56946734 141.82174879 68.56298828 145.91210938 C68.57220306 147.11194962 68.58141785 148.31178986 68.59091187 149.54798889 C68.53910378 160.01912417 66.97023167 169.22076241 59.45263672 176.98950195 C51.3852819 184.56744777 43.84799488 185.6394309 33.11279297 185.6105957 C31.96669556 185.61583755 30.82059814 185.62107941 29.63977051 185.6264801 C27.22600105 185.6328796 24.81220032 185.63159031 22.3984375 185.62304688 C18.71802005 185.61452852 15.0391515 185.6433436 11.35888672 185.67504883 C9.0060226 185.6766609 6.65315575 185.6760832 4.30029297 185.6730957 C3.20736938 185.68432968 2.1144458 185.69556366 0.98840332 185.70713806 C-8.02966335 185.62537508 -14.41890697 183.09278828 -21.18798828 177.02075195 C-26.54735688 170.86595395 -28.90306844 163.50074812 -28.94735718 155.48629761 C-28.95595764 154.32568314 -28.96455811 153.16506866 -28.97341919 151.96928406 C-28.97767914 150.69962296 -28.98193909 149.42996185 -28.98632812 148.12182617 C-28.99423397 146.76801851 -29.00250322 145.41421294 -29.0111084 144.06040955 C-29.03727743 139.61752317 -29.05263306 135.17462763 -29.06689453 130.73168945 C-29.07225672 129.198986 -29.07763424 127.6662826 -29.08302689 126.13357925 C-29.10465001 119.75457766 -29.12338396 113.37557855 -29.13464928 106.99654961 C-29.15087114 97.87257812 -29.18401211 88.74903361 -29.24105012 79.62522304 C-29.27983722 73.20041087 -29.29929242 66.77571246 -29.30456984 60.35078633 C-29.30821196 56.51842136 -29.32011023 52.68651232 -29.35267258 48.85427475 C-29.38290779 45.24420905 -29.38901101 41.63487145 -29.37728882 38.02470589 C-29.37696542 36.08236463 -29.40132896 34.14006726 -29.42666626 32.19789124 C-29.35809766 22.49157481 -27.03332676 15.53472094 -20.48095703 8.30200195 C-14.62942743 2.88486538 -7.94735097 0.09409677 0 0 Z " fill="#34A2FA" transform="translate(162.79345703125,544.822998046875)"/>
<path d="M0 0 C1.447733 -0.02893593 1.447733 -0.02893593 2.92471313 -0.05845642 C7.33387958 -0.11674485 11.74289367 -0.16548204 16.15234375 -0.19628906 C18.46825094 -0.21783766 20.78407738 -0.25190271 23.09960938 -0.29882812 C26.46048899 -0.36621839 29.81969012 -0.39335328 33.18115234 -0.41235352 C34.71299667 -0.4540995 34.71299667 -0.4540995 36.27578735 -0.49668884 C45.24485377 -0.47140124 51.93307037 2.74084439 58.73583984 8.51733398 C59.61755859 9.57114258 59.61755859 9.57114258 60.51708984 10.64624023 C61.12552734 11.34620117 61.73396484 12.04616211 62.36083984 12.76733398 C67.46676882 20.29376232 67.45280592 26.7759384 67.42114258 35.69628906 C67.42685184 37.06039487 67.43381825 38.4244959 67.44194031 39.78858948 C67.45982899 43.4788807 67.45871109 47.16893357 67.45299792 50.85925508 C67.44989877 53.94794399 67.45600682 57.03658761 67.46203667 60.12527007 C67.4760672 67.41753637 67.47453388 74.70968549 67.46313477 82.00195312 C67.45166438 89.50523903 67.4657142 97.00816703 67.49253124 104.51140577 C67.51474464 110.97027395 67.52131269 117.42903027 67.51545483 123.88793391 C67.51209634 127.73803223 67.51442554 131.58790138 67.53170586 135.4379673 C67.54726251 139.06199871 67.54312417 142.68550373 67.52440071 146.309515 C67.51900392 148.25892348 67.53316381 150.20835608 67.5480957 152.15771484 C67.46722178 161.87505004 65.62565602 170.35935151 58.86474609 177.67358398 C53.36053814 182.24684768 46.36208498 185.31294898 39.21362305 185.36987305 C38.23863358 185.37948059 37.2636441 185.38908813 36.2591095 185.39898682 C35.20600082 185.40323669 34.15289215 185.40748657 33.06787109 185.41186523 C31.98128708 185.41756531 30.89470306 185.42326538 29.77519226 185.42913818 C27.47277806 185.43859042 25.17035031 185.44512305 22.86791992 185.44897461 C19.36075903 185.45865421 15.85419065 185.48966544 12.34716797 185.52124023 C10.10823915 185.52777307 7.86930615 185.53302244 5.63037109 185.53686523 C4.58738358 185.54921204 3.54439606 185.56155884 2.46980286 185.57427979 C-7.14951446 185.54514175 -15.00537803 183.11156645 -21.98291016 176.20874023 C-26.45786884 169.88715303 -29.22421901 163.10428362 -29.25033569 155.3087616 C-29.25886566 154.15236679 -29.26739563 152.99597198 -29.27618408 151.80453491 C-29.27527771 150.54984406 -29.27437134 149.2951532 -29.2734375 148.00244141 C-29.2794274 146.65656666 -29.28623401 145.31069534 -29.29379272 143.96482849 C-29.31141378 140.32004914 -29.31614647 136.67536378 -29.3174243 133.03054595 C-29.31884875 130.74995629 -29.32312393 128.4693903 -29.32841873 126.18880653 C-29.34690665 118.22269812 -29.35509096 110.2566565 -29.35351562 102.29052734 C-29.3523148 94.88098181 -29.37340858 87.47172783 -29.40500295 80.06225604 C-29.43121035 73.68751101 -29.44188105 67.31286094 -29.44060481 60.93806249 C-29.44009645 57.13658944 -29.44570915 53.33537561 -29.46696091 49.53395653 C-29.48641878 45.95592511 -29.48641699 42.37839818 -29.47192764 38.80034828 C-29.46886163 36.87338422 -29.48546338 34.9464197 -29.50280762 33.01953125 C-29.42856144 22.71005256 -26.95099595 15.56874235 -19.91259766 8.00170898 C-13.86963386 2.3868904 -8.22310432 0.15469284 0 0 Z " fill="#34A4FB" transform="translate(1053.98291015625,544.791259765625)"/>
<path d="M0 0 C1.20652725 -0.0038269 2.4130545 -0.00765381 3.65614319 -0.01159668 C6.19679605 -0.01430747 8.73747722 -0.00700507 11.27807617 0.00976562 C15.14500832 0.03116617 19.01007858 0.00994274 22.87695312 -0.015625 C25.35547281 -0.01298121 27.83399135 -0.00785519 30.3125 0 C32.03012794 -0.01214539 32.03012794 -0.01214539 33.78245544 -0.02453613 C43.23852955 0.08471152 51.53362237 2.116766 58.62109375 8.68359375 C63.31881129 14.10315569 67.34938916 20.47335154 67.34570408 27.7735014 C67.34769513 28.64335664 67.34968618 29.51321189 67.35173756 30.40942639 C67.34882472 31.36564304 67.34591188 32.3218597 67.34291077 33.30705261 C67.34376519 34.32233687 67.34461962 35.33762113 67.34549993 36.38367158 C67.34715318 39.8016158 67.34163586 43.21951144 67.33618164 46.63745117 C67.33589971 49.08121235 67.33605762 51.52497361 67.33662415 53.96873474 C67.33685221 59.23817258 67.3340072 64.50759517 67.32838631 69.77702904 C67.32026469 77.39577604 67.31765541 85.01451705 67.31639832 92.63326792 C67.31420884 104.99371521 67.30755158 117.3541559 67.2980957 129.71459961 C67.28891889 141.72273729 67.28183937 153.73087319 67.27758789 165.73901367 C67.27732517 166.4790004 67.27706244 167.21898714 67.27679176 167.98139771 C67.27548674 171.69363547 67.27422302 175.40587324 67.27297986 179.11811101 C67.26261049 209.92249547 67.24492075 240.72687173 67.22265625 271.53125 C66.56265625 271.86125 65.90265625 272.19125 65.22265625 272.53125 C65.22045641 270.62788848 65.22045641 270.62788848 65.21821213 268.68607521 C65.18248672 238.54421468 65.1262118 208.40246859 65.0447353 178.26070026 C65.03471821 174.54831229 65.02487401 170.83592387 65.01513672 167.12353516 C65.01319535 166.3844858 65.01125397 165.64543644 65.00925377 164.88399164 C64.97825834 152.92767783 64.96125999 140.97138319 64.94946203 129.01503678 C64.93703772 116.74073918 64.90950748 104.46654201 64.86804318 92.19230783 C64.84294431 84.62241219 64.82953632 77.05268317 64.83122668 69.48274533 C64.83126004 63.67169212 64.81024535 57.86085983 64.78148842 52.0498848 C64.77298281 49.67074021 64.77124394 47.2915601 64.77685356 44.91240692 C64.78350466 41.65751399 64.76554482 38.40362604 64.74163818 35.14883423 C64.75327881 33.74509408 64.75327881 33.74509408 64.7651546 32.31299555 C64.66473543 24.56029649 62.84718715 17.70831372 57.84765625 11.65625 C52.64000162 7.09262546 52.64000162 7.09262546 46.22265625 5.53125 C46.22265625 4.87125 46.22265625 4.21125 46.22265625 3.53125 C38.83321654 3.43807251 31.44390599 3.36724541 24.05399513 3.32400131 C20.62155857 3.30323343 17.1895275 3.27511788 13.75732422 3.22949219 C9.80050717 3.17722903 5.84384736 3.15821544 1.88671875 3.140625 C0.6696524 3.11997986 -0.54741394 3.09933472 -1.80136108 3.07806396 C-10.16958451 3.07588529 -17.41522089 4.15503784 -24.1796875 9.390625 C-32.63644014 19.80555701 -32.92105767 30.56737584 -32.93556213 43.57937622 C-32.94050011 44.53938817 -32.94543809 45.49940012 -32.9505257 46.48850334 C-32.96577742 49.67739255 -32.97422759 52.86626183 -32.98266602 56.05517578 C-32.99225425 58.35218986 -33.00226488 60.64920222 -33.01266479 62.94621277 C-33.03961749 69.16235339 -33.06067903 75.37850152 -33.08066678 81.59466791 C-33.10258599 88.09827183 -33.12994556 94.60185283 -33.15672302 101.10543823 C-33.20091065 112.01494358 -33.24175924 122.92445672 -33.2800293 133.83398438 C-33.31944242 145.06674111 -33.36088241 156.29948739 -33.4050293 167.53222656 C-33.40775357 168.2255693 -33.41047784 168.91891203 -33.41328467 169.63326515 C-33.4269651 173.11184754 -33.44068519 176.59042977 -33.45442498 180.06901193 C-33.56821057 208.88973587 -33.67498762 237.71048329 -33.77734375 266.53125 C-34.10734375 266.53125 -34.43734375 266.53125 -34.77734375 266.53125 C-34.8686216 235.45589439 -34.9393966 204.38057428 -34.98160507 173.30511642 C-34.98660781 169.63521411 -34.99178511 165.96531207 -34.99707031 162.29541016 C-34.99864418 161.19950695 -34.99864418 161.19950695 -35.00024983 160.08146429 C-35.01764845 148.2563173 -35.04918312 136.43124821 -35.08595493 124.60614741 C-35.12337953 112.46978046 -35.14558281 100.33345426 -35.15369773 88.19703197 C-35.15918237 80.70999157 -35.17649628 73.22317134 -35.20900962 65.73619872 C-35.23268084 59.99225364 -35.23515975 54.24844922 -35.22977448 48.5044651 C-35.23087482 46.15025287 -35.23883017 43.79603228 -35.25416565 41.44186974 C-35.27408828 38.22575189 -35.2692739 35.01057351 -35.25836182 31.79443359 C-35.27001318 30.86445399 -35.28166455 29.93447439 -35.29366899 28.97631359 C-35.21741775 20.65283475 -32.5019464 14.68258379 -26.58984375 8.78125 C-25.89503906 8.06453125 -25.20023437 7.3478125 -24.484375 6.609375 C-16.79055476 0.70300795 -9.50053083 -0.06705992 0 0 Z " fill="#839AF1" transform="translate(311.77734375,488.46875)"/>
<path d="M0 0 C0.66 0.33 1.32 0.66 2 1 C-1.44615385 6.78461538 -1.44615385 6.78461538 -4.25 7.875 C-4.8275 7.91625 -5.405 7.9575 -6 8 C-6.13326942 8.58259145 -6.26653884 9.1651829 -6.40384672 9.76542863 C-6.96494001 11.86858406 -7.69384998 13.75083431 -8.53845245 15.75314188 C-10.08212358 19.82192774 -10.4238734 23.62189165 -10.38476086 27.94972992 C-10.38991076 28.71197534 -10.39506067 29.47422076 -10.40036663 30.25956452 C-10.41394335 32.80451696 -10.4063122 35.34895021 -10.39872742 37.8939209 C-10.40416865 39.74049049 -10.41092095 41.58705661 -10.41886932 43.43361712 C-10.43689332 48.5006849 -10.4363377 53.56760611 -10.43273985 58.63469839 C-10.43211611 64.10157229 -10.44873511 69.56839696 -10.46325684 75.0352478 C-10.48605194 84.50457625 -10.49792953 93.97386789 -10.50238609 103.44322205 C-10.50884532 117.13429927 -10.53177873 130.82530993 -10.55872939 144.51636034 C-10.60200808 166.72932116 -10.6319943 188.94228213 -10.65356445 211.15527344 C-10.67454918 232.73276139 -10.70180867 254.31022653 -10.73754883 275.88769531 C-10.73864831 276.55299204 -10.73974778 277.21828877 -10.74088058 277.903746 C-10.75302538 285.24799362 -10.76534176 292.59224094 -10.77772844 299.93648815 C-10.87092887 355.29097181 -10.94251976 410.64546852 -11 466 C-13.42759996 463.57240004 -13.24165659 462.29825168 -13.27165249 458.98556966 C-13.2678277 458.28192448 -13.26400291 457.5782793 -13.26006222 456.85331154 C-13.26577072 455.73078587 -13.26577072 455.73078587 -13.27159455 454.58558291 C-13.28198646 452.05174801 -13.27799027 449.51813399 -13.27415466 446.98428345 C-13.27860301 445.15969604 -13.28391571 443.33511057 -13.29002339 441.51052797 C-13.30426327 436.47590051 -13.30586555 431.4413346 -13.30542648 426.40668988 C-13.30706952 420.98448221 -13.3201267 415.56230028 -13.33161926 410.1401062 C-13.35451207 398.27202918 -13.36239504 386.40396999 -13.36744571 374.53587389 C-13.37069893 367.12681212 -13.37721929 359.71775557 -13.3844471 352.30869675 C-13.40402162 331.80121591 -13.42041983 311.29373994 -13.42332363 290.78624916 C-13.4235112 289.47271875 -13.42369877 288.15918834 -13.42389202 286.80585399 C-13.42425828 284.14287655 -13.42462198 281.47989911 -13.42498314 278.81692167 C-13.42516766 277.48162616 -13.42535232 276.14633066 -13.42553711 274.81103516 C-13.42562513 274.14945988 -13.42571315 273.48788461 -13.42580384 272.8062616 C-13.42870709 252.03502441 -13.45077958 231.26388042 -13.48706055 210.49267578 C-13.527775 187.16122618 -13.55146283 163.82984045 -13.55178314 140.49835336 C-13.55236786 128.14372531 -13.56086863 115.78921711 -13.58978081 103.4346199 C-13.61429447 92.91089998 -13.62157786 82.38734358 -13.60653328 71.86360283 C-13.59936341 66.49502624 -13.60022531 61.12677252 -13.62294388 55.75823212 C-13.64356088 50.8390677 -13.64090779 45.92047382 -13.62006903 41.0013154 C-13.61657928 39.22593361 -13.62146226 37.45051043 -13.63577347 35.67518289 C-13.72973048 23.2118494 -12.85937736 12.66162927 -3.6875 3.25 C-2.47536075 2.14764786 -1.25228804 1.05652093 0 0 Z " fill="#9F6ED5" transform="translate(433,387)"/>
<path d="M0 0 C0.02286853 56.51190959 0.04049933 113.02381872 0.05106533 169.53573202 C0.0523161 176.20131159 0.05360925 182.86689115 0.05493164 189.5324707 C0.0550624 190.19578858 0.05519316 190.85910646 0.05532788 191.54252488 C0.05959194 213.05636033 0.06710527 234.57019317 0.07629722 256.08402703 C0.08599021 278.81171867 0.09199432 301.53940877 0.09408849 324.26710242 C0.0954634 337.88828034 0.09981224 351.50945074 0.10791647 365.13062634 C0.11318584 374.46004613 0.11480386 383.789462 0.11350138 393.11888317 C0.1128583 398.50849416 0.11387214 403.89809198 0.11920547 409.28770065 C0.12404649 414.21554085 0.12433397 419.14335891 0.12089889 424.0712001 C0.1204739 425.85993657 0.12176372 427.64867438 0.12488318 429.43740819 C0.12885997 431.85721435 0.12675528 434.27693921 0.12304783 436.69674397 C0.12567484 437.4011923 0.12830186 438.10564063 0.13100848 438.83143589 C0.12049258 441.84110231 -0.03941723 444.1182517 -1 447 C-1.99 446.67 -2.98 446.34 -4 446 C-3.67 299.15 -3.34 152.3 -3 1 C-1 0 -1 0 0 0 Z " fill="#3A2769" transform="translate(532,409)"/>
<path d="M0 0 C0.33 0 0.66 0 1 0 C1 145.86 1 291.72 1 442 C0.67 442 0.34 442 0 442 C-0.33 402.4 -0.66 362.8 -1 322 C-1.33 322 -1.66 322 -2 322 C-2 240.16 -2 158.32 -2 74 C-1.67 74 -1.34 74 -1 74 C-0.67 49.58 -0.34 25.16 0 0 Z " fill="#483077" transform="translate(729,408)"/>
<path d="M0 0 C1.60284348 -0.01925285 1.60284348 -0.01925285 3.23806763 -0.03889465 C4.3891098 -0.04628159 5.54015198 -0.05366852 6.72607422 -0.0612793 C7.91748016 -0.06935104 9.10888611 -0.07742279 10.33639526 -0.08573914 C12.85982818 -0.09956947 15.38327973 -0.11029632 17.90673828 -0.11816406 C21.7453207 -0.13533947 25.58303339 -0.17923281 29.42138672 -0.22338867 C31.87710957 -0.23351939 34.33283973 -0.24203431 36.78857422 -0.2487793 C37.92747101 -0.26628738 39.0663678 -0.28379547 40.23977661 -0.30183411 C50.32530033 -0.27470164 58.35928577 2.05848883 65.65576172 9.17700195 C67.59326172 11.30200195 67.59326172 11.30200195 68.65576172 13.17700195 C68.32576172 14.16700195 67.99576172 15.15700195 67.65576172 16.17700195 C67.18267578 15.5737207 66.70958984 14.97043945 66.22216797 14.34887695 C65.56087891 13.5496582 64.89958984 12.75043945 64.21826172 11.92700195 C63.58017578 11.1380957 62.94208984 10.34918945 62.28466797 9.53637695 C55.17585722 3.15640416 47.5379698 2.58701306 38.31591797 2.6809082 C36.57271523 2.67872536 36.57271523 2.67872536 34.79429626 2.67649841 C32.34778322 2.67815114 29.9012591 2.68964162 27.45483398 2.71044922 C23.73294371 2.7393878 20.01248177 2.73104602 16.29052734 2.71801758 C13.9031507 2.72425659 11.51577852 2.73264879 9.12841797 2.7434082 C8.02708023 2.74047256 6.92574249 2.73753693 5.79103088 2.73451233 C-0.8258319 2.81434506 -7.28903822 3.26832188 -13.34423828 6.17700195 C-14.33423828 7.66200195 -14.33423828 7.66200195 -15.34423828 9.17700195 C-16.51986328 9.79575195 -16.51986328 9.79575195 -17.71923828 10.42700195 C-21.64983644 13.04740073 -23.54010951 16.57212617 -24.94494671 21.12292266 C-25.37421374 23.331205 -25.47507753 25.3553684 -25.48290348 27.60477066 C-25.48837792 28.49055054 -25.49385237 29.37633042 -25.4994927 30.28895211 C-25.50047081 31.25781972 -25.50144892 32.22668732 -25.50245667 33.22491455 C-25.50739464 34.25738744 -25.51233262 35.28986034 -25.51742023 36.35362029 C-25.53281533 39.82371722 -25.54116134 43.29379562 -25.54956055 46.76391602 C-25.55913748 49.24723474 -25.56914746 51.73055182 -25.57955933 54.21386719 C-25.60102097 59.56567087 -25.61946138 64.91747199 -25.63516426 70.26929474 C-25.65787321 78.0071382 -25.68601462 85.74495439 -25.71548354 93.4827747 C-25.76314687 106.03676289 -25.80641447 118.59076223 -25.84692383 131.14477539 C-25.88628516 143.34009672 -25.92771291 155.53540814 -25.97192383 167.73071289 C-25.9746481 168.48238488 -25.97737237 169.23405687 -25.9801792 170.0085068 C-25.99385878 173.77941035 -26.00757903 177.55031374 -26.02131951 181.32121706 C-26.13526452 212.60645824 -26.24200511 243.8917202 -26.34423828 275.17700195 C-28.40806243 272.08126573 -28.59522783 271.43268445 -28.6043005 267.93144894 C-28.61489889 266.62546636 -28.61489889 266.62546636 -28.62571138 265.2931003 C-28.6232963 264.33592295 -28.62088121 263.37874559 -28.61839294 262.39256287 C-28.62362962 261.37616716 -28.6288663 260.35977145 -28.63426167 259.31257588 C-28.6493211 255.89031079 -28.64996814 252.46819444 -28.65063477 249.04589844 C-28.65825245 246.59865566 -28.66667927 244.15141528 -28.67585754 241.70417786 C-28.69785285 235.04272857 -28.70663031 228.38133947 -28.71168399 221.7198627 C-28.71494063 217.55865489 -28.72146308 213.39745632 -28.72868538 209.23625374 C-28.74825649 197.71112967 -28.7646566 186.18601421 -28.76756191 174.66087246 C-28.76774948 173.92309063 -28.76793705 173.1853088 -28.76813031 172.42516995 C-28.76849655 170.92953018 -28.76886025 169.43389042 -28.76922142 167.93825065 C-28.76940423 167.1958252 -28.76958704 166.45339975 -28.76977539 165.68847656 C-28.77004621 164.57347544 -28.77004621 164.57347544 -28.77032251 163.43594903 C-28.77386106 151.40214267 -28.80086109 139.36851561 -28.83827328 127.33477139 C-28.87639214 114.97454289 -28.89571967 102.61440325 -28.89602143 90.25411469 C-28.89660534 83.31651602 -28.9050542 76.379131 -28.93401909 69.44158745 C-28.96115467 62.91214888 -28.96240728 56.38305881 -28.94636345 49.85355949 C-28.94454835 47.45987527 -28.95124505 45.0661668 -28.96718216 42.67253494 C-28.98765102 39.39796707 -28.97708439 36.12487644 -28.95896912 32.85032654 C-28.97216908 31.90876424 -28.98536905 30.96720194 -28.99896902 29.99710745 C-28.89073535 21.39821522 -25.82021046 14.59216876 -19.96923828 8.30200195 C-14.00204874 2.78982686 -8.13084741 0.08533012 0 0 Z " fill="#7C96EF" transform="translate(907.34423828125,488.822998046875)"/>
<path d="M0 0 C3.66938589 3.66938589 3.11528346 8.84510589 3.14772969 13.81477535 C3.14745315 14.91264029 3.14745315 14.91264029 3.14717102 16.03268433 C3.15084771 16.82437551 3.1545244 17.61606669 3.1583125 18.43174851 C3.16929533 21.07543667 3.1731839 23.71908546 3.17700195 26.36279297 C3.18327049 28.26200483 3.18991763 30.16121548 3.19691467 32.0604248 C3.21790404 38.28767043 3.22830951 44.51491617 3.23828125 50.7421875 C3.24233016 52.88848 3.24644712 55.03477237 3.25063133 57.18106461 C3.26966856 67.26176939 3.28390494 77.34246689 3.2922433 87.42318618 C3.30202271 99.05301603 3.32836681 110.68265592 3.36874419 122.31241882 C3.39890289 131.3079211 3.41371179 140.30336889 3.41702431 149.29892075 C3.41937425 154.66921373 3.42832828 160.0393034 3.45348549 165.40954208 C3.47676804 170.46080013 3.48099863 175.51172099 3.47072411 180.5630188 C3.47022875 182.41411587 3.47654908 184.26522957 3.49028015 186.11627579 C3.50801356 188.64903557 3.50088647 191.1805869 3.48774719 193.71334839 C3.50420106 194.80452117 3.50420106 194.80452117 3.52098733 195.91773784 C3.45261202 201.39999809 1.76266197 205.3024347 -1 210 C-1.66 210 -2.32 210 -3 210 C-2.67482171 208.85708716 -2.34964342 207.71417433 -2.01461124 206.53662777 C-0.91242031 202.10300487 -0.72715645 197.96449007 -0.76622009 193.41395569 C-0.76471517 192.1735699 -0.76471517 192.1735699 -0.76317984 190.90812582 C-0.76223276 188.15748361 -0.77553158 185.40710155 -0.78881836 182.65649414 C-0.79102113 180.67666704 -0.79232538 178.69683877 -0.7928009 176.7170105 C-0.79572771 172.46475511 -0.80495207 168.21257703 -0.81910515 163.96034431 C-0.8413982 157.24264241 -0.84946514 150.52496904 -0.85560608 143.80723572 C-0.86697386 133.19096438 -0.88769546 122.57473561 -0.91250378 111.95848793 C-0.9569061 92.9204597 -0.98997243 73.88241603 -1.01274782 54.8443498 C-1.02117723 48.15930874 -1.03522298 41.47430917 -1.05372036 34.78928864 C-1.06432338 30.64401238 -1.07093243 26.49873653 -1.07652092 22.35345078 C-1.08000646 20.42362893 -1.08523664 18.49380938 -1.09228897 16.56399727 C-1.10166549 13.94170217 -1.10500723 11.31946837 -1.10679626 8.69715881 C-1.11107335 7.92344801 -1.11535043 7.1497372 -1.11975712 6.35258061 C-1.11406456 1.11406456 -1.11406456 1.11406456 0 0 Z " fill="#381B54" transform="translate(682,535)"/>
<path d="M0 0 C0.99 0.495 0.99 0.495 2 1 C2.33 67.66 2.66 134.32 3 203 C2.01 203 1.02 203 0 203 C0 136.01 0 69.02 0 0 Z " fill="#46255C" transform="translate(573,538)"/>
<path d="M0 0 C1.10867935 -0.0127597 2.2173587 -0.02551941 3.3596344 -0.03866577 C5.15956093 -0.04200424 5.15956093 -0.04200424 6.99584961 -0.04541016 C8.23306259 -0.05206696 9.47027557 -0.05872375 10.74497986 -0.06558228 C13.36854565 -0.07571988 15.99213729 -0.08039895 18.61572266 -0.08007812 C22.60797471 -0.0798364 26.59948227 -0.12067874 30.59155273 -0.15869141 C33.14298126 -0.16456392 35.69441502 -0.1685304 38.24584961 -0.17041016 C40.02452171 -0.19196671 40.02452171 -0.19196671 41.83912659 -0.21395874 C50.69883392 -0.16574619 57.4035574 1.55605383 64.83569336 6.41552734 C71.97705337 13.88149463 75.90520159 22.14422713 75.82620239 32.4466095 C75.82791124 33.26350854 75.82962009 34.08040758 75.83138072 34.92206115 C75.83467246 37.65670774 75.82367714 40.39110846 75.81274414 43.12573242 C75.81217996 45.08703607 75.81249672 47.04834015 75.81362915 49.00964355 C75.81420339 54.33359481 75.8024375 59.65745609 75.78848124 64.98138642 C75.77598578 70.54542222 75.77480431 76.10946003 75.77243042 81.67350769 C75.76621217 92.20961136 75.74979666 102.74567356 75.72973144 113.28175896 C75.70738319 125.27680414 75.69638171 137.27185129 75.68634057 149.2669121 C75.66543076 173.94147351 75.63024805 198.61599811 75.58569336 223.29052734 C75.25569336 223.29052734 74.92569336 223.29052734 74.58569336 223.29052734 C74.58146142 222.33784092 74.57722948 221.3851545 74.5728693 220.40359879 C74.46954164 197.19135721 74.36077637 173.97914593 74.2463541 150.76695633 C74.19114479 139.54158792 74.13768345 128.31621634 74.08837891 117.09082031 C74.045386 107.30344526 73.9990708 97.51609245 73.94881481 87.7287519 C73.92233506 82.54948375 73.89748594 77.37021966 73.87661934 72.1909256 C73.85689774 67.30888698 73.83270989 62.42689021 73.80520248 57.54488945 C73.79591356 55.75999914 73.78820981 53.9750997 73.78227425 52.19019508 C74.06217801 32.72249986 74.06217801 32.72249986 68.58569336 14.29052734 C68.0790918 13.19224609 68.0790918 13.19224609 67.56225586 12.07177734 C66.25770975 9.69228524 65.07081658 9.36517522 62.58569336 8.29052734 C61.39282274 7.61238857 60.20570925 6.92406518 59.02319336 6.22802734 C54.58394284 3.72590432 51.66091175 3.15759235 46.64550781 3.08520508 C45.42446854 3.06525986 44.20342926 3.04531464 42.94538879 3.02476501 C41.62657211 3.00805252 40.30775543 2.99134003 38.94897461 2.97412109 C37.58562092 2.95354475 36.22227351 2.93254809 34.8589325 2.91114807 C31.27347914 2.85599765 27.68796888 2.80655747 24.10241699 2.75830078 C20.44249416 2.70803435 16.78265379 2.65237515 13.12280273 2.59716797 C5.94383615 2.48967241 -1.23519909 2.38820844 -8.41430664 2.29052734 C-5.05983577 0.05421343 -3.92375093 0.03065573 0 0 Z " fill="#EB78CE" transform="translate(606.414306640625,513.70947265625)"/>
<path d="M0 0 C0.02335056 14.0296351 0.04092334 28.05926719 0.05181217 42.08891773 C0.05703746 48.6029865 0.06412873 55.11704224 0.07543945 61.63110352 C0.08628085 67.91397416 0.09227951 74.19683226 0.09487724 80.47971153 C0.09672922 82.88035975 0.10034551 85.28100726 0.10573006 87.68165016 C0.11295705 91.03623582 0.11399023 94.39076917 0.11352539 97.74536133 C0.11712067 98.74445526 0.12071594 99.74354919 0.12442017 100.7729187 C0.1230455 101.68577133 0.12167084 102.59862396 0.12025452 103.53913879 C0.12117631 104.33280255 0.1220981 105.12646631 0.12304783 105.94418049 C0 108 0 108 -1 111 C-1.99 110.67 -2.98 110.34 -4 110 C-3.67 74.03 -3.34 38.06 -3 1 C-1 0 -1 0 0 0 Z " fill="#312361" transform="translate(532,745)"/>
<path d="M0 0 C0.99 0 1.98 0 3 0 C2.1875 1.9375 2.1875 1.9375 1 4 C0.01 4.33 -0.98 4.66 -2 5 C-2.29003906 5.62519531 -2.58007812 6.25039063 -2.87890625 6.89453125 C-4.38926928 9.73106669 -6.05469869 10.34557927 -8.9375 11.6875 C-9.81277344 12.10386719 -10.68804688 12.52023437 -11.58984375 12.94921875 C-15.2518266 14.54577205 -18.02738625 15.12586497 -21.99047852 15.12939453 C-23.51204308 15.13412277 -23.51204308 15.13412277 -25.06434631 15.13894653 C-26.15815109 15.1369223 -27.25195587 15.13489807 -28.37890625 15.1328125 C-30.0634214 15.13424759 -30.0634214 15.13424759 -31.78196716 15.13571167 C-34.1566473 15.13639243 -36.5313293 15.13454536 -38.90600586 15.13037109 C-42.55131178 15.12501643 -46.19649477 15.13032219 -49.84179688 15.13671875 C-52.14583361 15.13605805 -54.44987026 15.13477705 -56.75390625 15.1328125 C-58.39764977 15.13584885 -58.39764977 15.13584885 -60.07460022 15.13894653 C-61.08582443 15.13579437 -62.09704865 15.13264221 -63.13891602 15.12939453 C-64.0314357 15.12859894 -64.92395538 15.12780334 -65.84352112 15.12698364 C-68 15 -68 15 -70 14 C-70 13.01 -70 12.02 -70 11 C-69.35821808 11.00888245 -68.71643616 11.01776489 -68.0552063 11.0269165 C-61.33865317 11.11583029 -54.62226891 11.17591626 -47.90527344 11.21972656 C-45.40292564 11.23976603 -42.90062422 11.26700522 -40.3984375 11.30175781 C-36.78894563 11.3506124 -33.18007621 11.37304645 -29.5703125 11.390625 C-27.90876633 11.42159271 -27.90876633 11.42159271 -26.21365356 11.45318604 C-17.03013281 11.4558027 -8.78701741 9.57492312 -2 3 C-1.34 2.01 -0.68 1.02 0 0 Z " fill="#122B4A" transform="translate(1115,718)"/>
<path d="M0 0 C0.94843781 -0.01283524 1.89687561 -0.02567047 2.87405396 -0.03889465 C3.89385345 -0.04628159 4.91365295 -0.05366852 5.96435547 -0.0612793 C7.02258514 -0.06935104 8.08081482 -0.07742279 9.17111206 -0.08573914 C11.41207245 -0.09956459 13.65305376 -0.11029362 15.89404297 -0.11816406 C18.17503064 -0.1296662 20.45599177 -0.15008976 22.73681641 -0.1796875 C26.04201453 -0.2225717 29.34641288 -0.23856408 32.65185547 -0.2487793 C33.65950958 -0.26628738 34.6671637 -0.28379547 35.70535278 -0.30183411 C45.62987165 -0.27181929 53.35122756 2.61096997 60.57373047 9.4387207 C62.55845595 11.55164615 64.08717507 13.49051899 65.20654297 16.17700195 C64.71154297 17.66200195 64.71154297 17.66200195 64.20654297 19.17700195 C63.85462891 18.58532227 63.50271484 17.99364258 63.14013672 17.3840332 C58.44001982 9.8613918 53.88782228 5.48902449 45.20654297 3.17700195 C41.38641071 2.87251553 37.5764 2.87292536 33.74560547 2.8762207 C32.64107025 2.87193558 31.53653503 2.86765045 30.39852905 2.86323547 C28.06696252 2.85750426 25.73537812 2.85698299 23.40380859 2.86132812 C19.85076134 2.86448488 16.29854971 2.84102387 12.74560547 2.81567383 C10.47477318 2.81340029 8.20393866 2.81269759 5.93310547 2.8137207 C4.87765533 2.80451096 3.8222052 2.79530121 2.73477173 2.78581238 C-4.2500666 2.82927219 -10.55892079 3.28595628 -16.00048828 8.1496582 C-16.53029297 8.83930664 -17.06009766 9.52895508 -17.60595703 10.23950195 C-19.65246126 12.84988858 -20.97591813 14.29864269 -23.79345703 16.17700195 C-24.99796007 18.72883599 -24.99796007 18.72883599 -25.79345703 21.17700195 C-26.45361328 19.4230957 -26.45361328 19.4230957 -26.79345703 17.17700195 C-23.02216265 9.79583046 -16.2685901 4.42705981 -8.79345703 1.17700195 C-5.8112367 0.27752418 -3.10972652 0.03681922 0 0 Z " fill="#4AB4E1" transform="translate(162.79345703125,544.822998046875)"/>
<path d="M0 0 C1.77861923 -0.00786278 1.77861923 -0.00786278 3.59317017 -0.0158844 C6.09270447 -0.0222864 8.59226897 -0.02099133 11.09179688 -0.01245117 C14.89508297 -0.00394868 18.69686225 -0.03271931 22.5 -0.06445312 C24.93749955 -0.06606564 27.37500174 -0.06548665 29.8125 -0.0625 C30.93884857 -0.07373398 32.06519714 -0.08496796 33.22567749 -0.09654236 C43.25062229 -0.00902456 51.2869848 2.35839599 58.5390625 9.43359375 C60.4765625 11.55859375 60.4765625 11.55859375 61.5390625 13.43359375 C61.2090625 14.42359375 60.8790625 15.41359375 60.5390625 16.43359375 C60.06597656 15.8303125 59.59289062 15.22703125 59.10546875 14.60546875 C58.44417969 13.80625 57.78289062 13.00703125 57.1015625 12.18359375 C56.46347656 11.3946875 55.82539062 10.60578125 55.16796875 9.79296875 C48.059158 3.41299596 40.42127058 2.84360486 31.19921875 2.9375 C29.45601601 2.93531715 29.45601601 2.93531715 27.67759705 2.93309021 C25.231084 2.93474293 22.78455988 2.94623342 20.33813477 2.96704102 C16.61624449 2.99597959 12.89578255 2.98763781 9.17382812 2.97460938 C6.78645148 2.98084838 4.3990793 2.98924058 2.01171875 3 C0.91038101 2.99706436 -0.19095673 2.99412872 -1.32566833 2.99110413 C-7.94253112 3.07093686 -14.40573744 3.52491368 -20.4609375 6.43359375 C-21.4509375 7.91859375 -21.4509375 7.91859375 -22.4609375 9.43359375 C-24.12373077 10.44002125 -25.79077234 11.43944782 -27.4609375 12.43359375 C-28.83077948 13.72939022 -30.1760424 15.05352124 -31.4609375 16.43359375 C-30.12415873 12.39511471 -28.50783659 10.12683162 -25.3359375 7.30859375 C-24.24925781 6.31472656 -24.24925781 6.31472656 -23.140625 5.30078125 C-15.76738022 0.16315588 -8.71430873 -0.02263104 0 0 Z " fill="#81A1E1" transform="translate(914.4609375,488.56640625)"/>
<path d="M0 0 C0.66 0.33 1.32 0.66 2 1 C-1.44615385 6.78461538 -1.44615385 6.78461538 -4.25 7.875 C-4.8275 7.91625 -5.405 7.9575 -6 8 C-6.13333079 8.59185593 -6.26666159 9.18371185 -6.40403271 9.79350281 C-7 12 -7 12 -8.53547668 15.30395508 C-10.93872138 21.66612123 -10.44039054 28.4323278 -10.43237305 35.13671875 C-10.44140012 36.66498095 -10.45172966 38.19323593 -10.46325684 39.72148132 C-10.49074207 43.85106053 -10.50009977 47.98050203 -10.50611091 52.11016083 C-10.51551673 56.43303339 -10.54172186 60.755804 -10.56611633 65.07861328 C-10.6097244 73.2558734 -10.63830629 81.43311367 -10.66143972 89.61045456 C-10.68852196 98.92370192 -10.73243158 108.23684641 -10.77772844 117.55002022 C-10.87049314 136.69995911 -10.94221125 155.84992522 -11 175 C-11.33 175 -11.66 175 -12 175 C-12.11694775 154.57213118 -12.20504417 134.14433056 -12.25906086 113.71619606 C-12.28481157 104.23044245 -12.31990201 94.7448972 -12.37719727 85.25927734 C-12.42712837 76.98888072 -12.45931378 68.71863504 -12.47044247 60.44809186 C-12.47694485 56.07128989 -12.49216138 51.69491961 -12.52865028 47.31825638 C-12.56276354 43.19284621 -12.57302236 39.06804271 -12.56553841 34.94250488 C-12.56690615 33.43409292 -12.5767474 31.92565921 -12.59602737 30.41736984 C-12.71959774 20.24545906 -11.50182605 12.59027529 -4.98046875 4.4921875 C-4.38878906 3.95851563 -3.79710937 3.42484375 -3.1875 2.875 C-2.58292969 2.31554687 -1.97835938 1.75609375 -1.35546875 1.1796875 C-0.90816406 0.79039062 -0.46085937 0.40109375 0 0 Z " fill="#D28CF9" transform="translate(433,387)"/>
<path d="M0 0 C0.33 0 0.66 0 1 0 C1.00423194 0.93668046 1.00846388 1.87336092 1.01282406 2.83842564 C1.11602526 25.63165442 1.22477474 48.42485158 1.33933926 71.21802616 C1.3946134 82.24063632 1.44808583 93.26324972 1.49731445 104.28588867 C1.54022748 113.89339546 1.58652335 123.50087897 1.63687855 133.10834974 C1.66342216 138.19523755 1.68827371 143.28212092 1.70907402 148.36903572 C1.72871075 153.15831238 1.75287528 157.94754498 1.78049088 162.73678207 C1.78982413 164.49313364 1.79751265 166.24949485 1.80341911 168.00586128 C1.81174392 170.40756572 1.82603779 172.80916504 1.84178162 175.21083069 C1.84275972 175.90248434 1.84373783 176.59413798 1.84474558 177.30675083 C1.88115782 181.63940794 2.30634877 185.73547141 3 190 C1.52254772 188.96625042 1.52254772 188.96625042 0 187 C-0.28817705 184.43193396 -0.39197722 182.10776447 -0.36076355 179.53999329 C-0.36332682 178.77380572 -0.3658901 178.00761815 -0.36853105 177.21821278 C-0.37348442 174.64306588 -0.35695078 172.06850136 -0.34057617 169.4934082 C-0.33973023 167.65062473 -0.34020439 165.80784025 -0.34190369 163.96505737 C-0.34276636 158.95497612 -0.32509654 153.94510923 -0.30418181 148.93507791 C-0.28546037 143.70202479 -0.28366816 138.46896706 -0.28010559 133.23588562 C-0.27077178 123.32300875 -0.24613993 113.41023084 -0.21605712 103.4973976 C-0.18255465 92.21339704 -0.16603756 80.92939181 -0.15097082 69.64535391 C-0.11959154 46.43018103 -0.0668051 23.21509605 0 0 Z " fill="#F2F2F2" transform="translate(23,794)"/>
<path d="M0 0 C0.98071472 0.00015106 1.96142944 0.00030212 2.97186279 0.00045776 C4.54861786 0.01594162 4.54861786 0.01594162 6.15722656 0.03173828 C7.78014618 0.03598312 7.78014618 0.03598312 9.43585205 0.04031372 C12.8899646 0.05150469 16.34381744 0.07660758 19.79785156 0.10205078 C22.14029573 0.11208197 24.48274397 0.12120758 26.82519531 0.12939453 C32.56616927 0.15144049 38.30699186 0.18490744 44.04785156 0.22705078 C44.04785156 0.88705078 44.04785156 1.54705078 44.04785156 2.22705078 C44.64597656 2.04142578 45.24410156 1.85580078 45.86035156 1.66455078 C48.04785156 1.22705078 48.04785156 1.22705078 51.04785156 2.22705078 C51.04785156 3.21705078 51.04785156 4.20705078 51.04785156 5.22705078 C50.3030957 5.06261475 49.55833984 4.89817871 48.79101562 4.72875977 C43.56695688 4.02856144 38.42097925 4.14499573 33.15722656 4.19970703 C30.81608215 4.21234327 28.47493625 4.22470495 26.13378906 4.23681641 C22.45112434 4.26172594 18.76853733 4.28981493 15.0859375 4.32299805 C11.52636192 4.35306363 7.96688798 4.37092415 4.40722656 4.38720703 C2.74478912 4.40739647 2.74478912 4.40739647 1.04876709 4.42799377 C-0.48357574 4.4330619 -0.48357574 4.4330619 -2.046875 4.43823242 C-3.39872894 4.44941856 -3.39872894 4.44941856 -4.77789307 4.46083069 C-6.95214844 4.22705078 -6.95214844 4.22705078 -8.95214844 2.22705078 C-5.83587788 0.40979823 -3.59088451 -0.01850971 0 0 Z " fill="#112544" transform="translate(161.9521484375,541.77294921875)"/>
<path d="M0 0 C7.24178262 -0.09326839 14.48343272 -0.16404967 21.72569752 -0.20724869 C25.08972925 -0.22799721 28.4533458 -0.25607591 31.81713867 -0.30175781 C35.69721156 -0.35062704 39.57670526 -0.37305005 43.45703125 -0.390625 C44.64706253 -0.41127014 45.83709381 -0.43191528 47.06318665 -0.45318604 C55.91424019 -0.45553103 64.33019215 0.86044395 71.5 6.4375 C73.84144627 8.83748242 75.4713197 11.02756609 77 14 C76.01 14 75.02 14 74 14 C72.33333333 12.33333333 70.66666667 10.66666667 69 9 C63.48045522 5.22934469 58.9207765 3.89700318 52.31347656 3.79467773 C51.17259583 3.77473251 50.03171509 3.75478729 48.85626221 3.73423767 C47.63010193 3.71752518 46.40394165 3.70081268 45.140625 3.68359375 C43.88111023 3.66281265 42.62159546 3.64203156 41.32391357 3.62062073 C37.98341129 3.56633698 34.64289778 3.51607931 31.30230713 3.46777344 C27.89028607 3.41744296 24.47835177 3.3618173 21.06640625 3.30664062 C14.37767336 3.19954886 7.68887537 3.0977646 1 3 C0.67 2.01 0.34 1.02 0 0 Z " fill="#482B58" transform="translate(600,511)"/>
<path d="M0 0 C18.15 0 36.3 0 55 0 C54.67 0.99 54.34 1.98 54 3 C46.63108899 3.07587179 39.26227814 3.12852436 31.89306641 3.16479492 C29.38456458 3.1799103 26.87608928 3.20040298 24.36767578 3.22631836 C20.76848818 3.26258042 17.169649 3.27969874 13.5703125 3.29296875 C12.44319855 3.30845261 11.31608459 3.32393646 10.15481567 3.33988953 C9.11388763 3.34011612 8.07295959 3.34034271 7.00048828 3.34057617 C6.08115509 3.34723801 5.1618219 3.35389984 4.21463013 3.36076355 C3.48380219 3.24171158 2.75297424 3.12265961 2 3 C1.34 2.01 0.68 1.02 0 0 Z " fill="#341E4A" transform="translate(601,762)"/>
<path d="M0 0 C1.09706772 0.00424484 2.19413544 0.00848969 3.32444763 0.01286316 C6.79858853 0.02953948 10.27213074 0.06717158 13.74609375 0.10546875 C16.11392386 0.12052984 18.48176315 0.13421574 20.84960938 0.14648438 C26.62780544 0.17940673 32.4056568 0.22949497 38.18359375 0.29296875 C38.18359375 0.95296875 38.18359375 1.61296875 38.18359375 2.29296875 C37.22972023 2.30176811 37.22972023 2.30176811 36.25657654 2.31074524 C29.62120126 2.37481777 22.98630476 2.45927342 16.35131836 2.55541992 C13.87709883 2.58861679 11.40280453 2.61666493 8.9284668 2.6394043 C5.36605041 2.67304576 1.80431603 2.72536862 -1.7578125 2.78125 C-3.40977379 2.79083488 -3.40977379 2.79083488 -5.09510803 2.8006134 C-11.86195935 2.92933771 -17.59828048 3.24456158 -22.7421875 8.1171875 C-23.19980469 8.73207031 -23.65742187 9.34695313 -24.12890625 9.98046875 C-25.5546875 11.8671875 -25.5546875 11.8671875 -26.81640625 13.29296875 C-27.47640625 13.29296875 -28.13640625 13.29296875 -28.81640625 13.29296875 C-30.44155093 14.75130233 -30.44155093 14.75130233 -31.81640625 16.29296875 C-30.48311023 12.28610007 -28.88709969 9.98618507 -25.75390625 7.16796875 C-25.04105469 6.50539063 -24.32820313 5.8428125 -23.59375 5.16015625 C-16.23956145 0.21599011 -8.63857291 -0.12772502 0 0 Z " fill="#45B4DB" transform="translate(1060.81640625,544.70703125)"/>
<path d="M0 0 C1.84536598 0.00848969 1.84536598 0.00848969 3.72801208 0.01715088 C7.6302802 0.0394158 11.53160643 0.0895966 15.43359375 0.140625 C18.09048135 0.16297424 20.7473601 0.17895104 23.40429688 0.1953125 C29.89354672 0.23924837 36.38225292 0.30606235 42.87109375 0.390625 C42.87109375 0.720625 42.87109375 1.050625 42.87109375 1.390625 C24.72109375 1.390625 6.57109375 1.390625 -12.12890625 1.390625 C-12.12890625 2.050625 -12.12890625 2.710625 -12.12890625 3.390625 C-12.76957031 3.5865625 -13.41023438 3.7825 -14.0703125 3.984375 C-21.66122462 6.60895266 -26.32148467 10.23159937 -30.1875 17.3359375 C-32.36903821 22.49230053 -32.79939362 27.84572287 -33.12890625 33.390625 C-33.45890625 33.390625 -33.78890625 33.390625 -34.12890625 33.390625 C-36.0352037 20.95825035 -36.0352037 20.95825035 -32.6171875 15.33203125 C-23.40592845 3.31629438 -14.94655256 -0.2618404 0 0 Z " fill="#8297D3" transform="translate(312.12890625,488.609375)"/>
<path d="M0 0 C-6.04145992 2.69858101 -12.13969327 2.25235964 -18.6171875 2.1953125 C-19.82948029 2.1924826 -21.04177307 2.18965271 -22.290802 2.18673706 C-26.15230289 2.17556667 -30.01356953 2.15046737 -33.875 2.125 C-36.49739248 2.11496616 -39.1197886 2.10584102 -41.7421875 2.09765625 C-48.16153789 2.07563758 -54.5807522 2.04219098 -61 2 C-60.67 1.01 -60.34 0.02 -60 -1 C-52.09827119 -1.19357409 -44.19629864 -1.37098804 -36.29394531 -1.53710938 C-33.60500532 -1.59438136 -30.9162584 -1.65681557 -28.22753906 -1.72363281 C-24.36537899 -1.8176928 -20.5031362 -1.89843956 -16.640625 -1.9765625 C-15.4363385 -2.00875885 -14.232052 -2.0409552 -12.99127197 -2.0741272 C-11.30998199 -2.10438492 -11.30998199 -2.10438492 -9.59472656 -2.13525391 C-8.60877502 -2.15746002 -7.62282349 -2.17966614 -6.60699463 -2.20254517 C-3.90581443 -1.99268244 -2.30325547 -1.38383582 0 0 Z " fill="#313D6F" transform="translate(361,784)"/>
<path d="M0 0 C0.66 0.33 1.32 0.66 2 1 C1.67193359 1.9065332 1.34386719 2.81306641 1.00585938 3.74707031 C-0.51474872 9.11812082 -0.1851718 14.51072196 -0.09375 20.046875 C-0.07302932 22.56703804 -0.05494486 25.0872237 -0.0390625 27.60742188 C-0.03410515 28.27538914 -0.0291478 28.9433564 -0.02404022 29.63156509 C0.02954549 37.98993707 -0.09753066 46.34579521 -0.21875 54.703125 C-0.2413393 56.31546972 -0.26388151 57.9278151 -0.28637695 59.54016113 C-0.34382407 63.61434322 -0.40345054 67.68849075 -0.46356201 71.76263428 C-0.52535867 75.98105813 -0.58482919 80.19951482 -0.64453125 84.41796875 C-0.76082315 92.61201181 -0.87956574 100.80601677 -1 109 C-1.33 109 -1.66 109 -2 109 C-2.20033392 95.82196007 -2.3840391 82.64380287 -2.54658794 69.46523952 C-2.62258901 63.34573655 -2.70429054 57.22642093 -2.79907227 51.10717773 C-2.89035135 45.20047272 -2.96658757 39.29374659 -3.03244972 33.3867054 C-3.06019558 31.13442825 -3.09333793 28.88221084 -3.13199425 26.63009453 C-3.18526227 23.47270519 -3.21924238 20.31564728 -3.2487793 17.15795898 C-3.26891586 16.22935059 -3.28905243 15.30074219 -3.30979919 14.34399414 C-3.33734184 8.77233058 -2.57072011 4.96172631 0 0 Z " fill="#758FF4" transform="translate(882,504)"/>
<path d="M0 0 C0.66 0.33 1.32 0.66 2 1 C-3.7551842 4.78088756 -9.34885595 4.43493756 -16.07421875 4.3984375 C-17.23500443 4.40130768 -18.3957901 4.40417786 -19.5917511 4.40713501 C-22.0384673 4.40917199 -24.48519992 4.40366781 -26.93188477 4.39111328 C-30.68477511 4.37501169 -34.43659554 4.39099774 -38.18945312 4.41015625 C-40.56771072 4.40817461 -42.94596764 4.40433258 -45.32421875 4.3984375 C-47.01172493 4.40754654 -47.01172493 4.40754654 -48.73332214 4.4168396 C-49.77482925 4.40738312 -50.81633636 4.39792664 -51.8894043 4.38818359 C-53.26457466 4.38460342 -53.26457466 4.38460342 -54.66752625 4.38095093 C-57.41060968 3.93293724 -58.29113712 3.13608413 -60 1 C-59.29256149 1.00222061 -58.58512299 1.00444122 -57.85624695 1.00672913 C-51.1907713 1.02676244 -44.52530405 1.04198968 -37.85980511 1.05181217 C-34.43297225 1.05703175 -31.00616425 1.06411265 -27.5793457 1.07543945 C-23.64013974 1.08837846 -19.70094387 1.09323586 -15.76171875 1.09765625 C-14.53039719 1.10281754 -13.29907562 1.10797882 -12.03044128 1.11329651 C-10.88948502 1.11337204 -9.74852875 1.11344757 -8.57299805 1.11352539 C-7.06409248 1.11685631 -7.06409248 1.11685631 -5.52470398 1.12025452 C-2.87319389 1.10813906 -2.87319389 1.10813906 0 0 Z " fill="#32A8ED" transform="translate(212,726)"/>
<path d="M0 0 C1.39049275 0.00051944 2.78098624 -0.0000015 4.17147827 -0.00151062 C7.07471794 -0.00142126 9.9776778 0.00893524 12.88085938 0.02709961 C16.59416688 0.04982811 20.30706779 0.05031933 24.0204258 0.04358196 C26.88753854 0.04023488 29.75455925 0.04688526 32.62165451 0.0567112 C33.99073174 0.06054755 35.35981923 0.06171793 36.72890091 0.06012535 C38.64302128 0.05975288 40.55712771 0.07388966 42.47119141 0.08862305 C43.55816315 0.09323044 44.64513489 0.09783783 45.76504517 0.10258484 C48.77834495 0.36924646 50.98200216 1.09215808 53.7109375 2.36328125 C53.7109375 2.69328125 53.7109375 3.02328125 53.7109375 3.36328125 C47.9609375 3.48828125 47.9609375 3.48828125 45.7109375 2.36328125 C43.99690481 2.26252546 42.27898935 2.22491772 40.56201172 2.21801758 C39.48684296 2.21163773 38.41167419 2.20525787 37.30392456 2.19868469 C36.13628571 2.19757187 34.96864685 2.19645905 33.765625 2.1953125 C32.56664581 2.1919841 31.36766663 2.1886557 30.13235474 2.18522644 C27.58856592 2.18015419 25.04477043 2.17781821 22.50097656 2.17797852 C18.62293363 2.17580201 14.74517968 2.1576768 10.8671875 2.13867188 C8.39583431 2.13573597 5.92447976 2.13375249 3.453125 2.1328125 C2.29763153 2.12562698 1.14213806 2.11844147 -0.04837036 2.11103821 C-6.12785045 2.12813411 -11.50786666 2.39746724 -17.2890625 4.36328125 C-17.6190625 5.02328125 -17.9490625 5.68328125 -18.2890625 6.36328125 C-20.00306417 7.05547423 -21.71730946 7.74708003 -23.43359375 8.43359375 C-26.27856292 9.85907304 -28.19325922 12.01344121 -30.2890625 14.36328125 C-29.72764832 10.71408908 -28.43076585 9.18826464 -25.6640625 6.80078125 C-25.01179687 6.22199219 -24.35953125 5.64320313 -23.6875 5.046875 C-16.0749059 -0.2968189 -9.05621197 -0.06694752 0 0 Z " fill="#E4A5FB" transform="translate(766.2890625,381.63671875)"/>
<path d="M0 0 C0 0.99 0 1.98 0 3 C-2.92918293 3.97639431 -4.79025738 4.12136181 -7.83862305 4.11352539 C-9.30980843 4.11341209 -9.30980843 4.11341209 -10.81071472 4.11329651 C-11.86704605 4.10813522 -12.92337738 4.10297394 -14.01171875 4.09765625 C-15.63676079 4.09553383 -15.63676079 4.09553383 -17.29463196 4.09336853 C-20.75894925 4.08776559 -24.2232022 4.07521258 -27.6875 4.0625 C-30.03450428 4.05748538 -32.38150956 4.05292241 -34.72851562 4.04882812 C-40.48569908 4.03779521 -46.24284494 4.0210542 -52 4 C-51.67 3.01 -51.34 2.02 -51 1 C-44.05827406 0.85729973 -37.11654168 0.71491542 -30.17480469 0.57275391 C-27.81184745 0.52432466 -25.44889172 0.47582228 -23.0859375 0.42724609 C-19.69531639 0.35755631 -16.30469003 0.288127 -12.9140625 0.21875 C-11.32182358 0.18593933 -11.32182358 0.18593933 -9.69741821 0.15246582 C-8.22611954 0.12243469 -8.22611954 0.12243469 -6.72509766 0.09179688 C-5.85905914 0.07403198 -4.99302063 0.05626709 -4.10073853 0.03796387 C-2.73399027 0.01326443 -1.36697142 0 0 0 Z " fill="#153456" transform="translate(210,729)"/>
<path d="M0 0 C7.38937559 -0.11647085 14.77854939 -0.20500427 22.16866112 -0.25906086 C25.60121742 -0.28502161 29.03314022 -0.32016534 32.46533203 -0.37719727 C36.42212013 -0.44252573 40.37866259 -0.46629239 44.3359375 -0.48828125 C46.16153702 -0.52699089 46.16153702 -0.52699089 48.02401733 -0.56648254 C56.62816605 -0.56928267 63.55830362 0.89495385 70.02670288 6.87309265 C71.60028042 8.53299561 72.93784909 9.97182043 74 12 C73.67 12.99 73.34 13.98 73 15 C72.55269531 14.45730469 72.10539062 13.91460937 71.64453125 13.35546875 C67.03829637 7.80938921 67.03829637 7.80938921 61 4 C60.01 4 59.02 4 58 4 C58 3.34 58 2.68 58 2 C38.86 1.67 19.72 1.34 0 1 C0 0.67 0 0.34 0 0 Z " fill="#96ADFE" transform="translate(300,490)"/>
<path d="M0 0 C0.66 0.66 1.32 1.32 2 2 C-1.04887969 8.96886786 -6.22606119 13.54096742 -13 17 C-15.84765625 16.71875 -15.84765625 16.71875 -18 16 C-16.41623174 14.94415449 -14.82214558 13.89874812 -13.16796875 12.95703125 C-7.60263068 9.74077079 -2.92184327 5.84368653 0 0 Z " fill="#351C4D" transform="translate(678,745)"/>
<path d="M0 0 C0.33 0 0.66 0 1 0 C1.02470254 5.64167969 1.04286121 11.28332795 1.05493164 16.92504883 C1.05996315 18.84465076 1.06678898 20.76424886 1.07543945 22.68383789 C1.08755669 25.44157864 1.09324011 28.19926876 1.09765625 30.95703125 C1.10281754 31.81649857 1.10797882 32.67596588 1.11329651 33.56147766 C1.11337204 34.36208115 1.11344757 35.16268463 1.11352539 35.98754883 C1.115746 36.6914827 1.11796661 37.39541656 1.12025452 38.12068176 C1 40 1 40 0 43 C-0.99 42.67 -1.98 42.34 -3 42 C-2.505 39.03 -2.505 39.03 -2 36 C-1.67 36 -1.34 36 -1 36 C-0.67 24.12 -0.34 12.24 0 0 Z " fill="#28235A" transform="translate(531,813)"/>
<path d="M0 0 C0.33 0 0.66 0 1 0 C1.35793464 3.13192808 1.18051088 4.69391633 -0.4375 7.4375 C-4.58553159 11.58553159 -9.40561777 15.13520592 -15 17 C-15 16.34 -15 15.68 -15 15 C-15.66 14.67 -16.32 14.34 -17 14 C-16.43152344 13.8040625 -15.86304688 13.608125 -15.27734375 13.40625 C-8.42269519 10.75136108 -3.34164155 6.6832831 0 0 Z " fill="#0F2B4B" transform="translate(227,714)"/>
<path d="M0 0 C5.41517292 0.33844831 9.1220106 3.48166284 13 7 C18 12.79326923 18 12.79326923 18 16 C17.34 16 16.68 16 16 16 C15.79375 15.4225 15.5875 14.845 15.375 14.25 C13.50714999 11.19351817 10.97237772 9.9617693 8 8 C6.63755204 6.35704805 5.30135125 4.69175663 4 3 C1.87396815 1.23676495 1.87396815 1.23676495 0 0 Z " fill="#CB8EEC" transform="translate(508,384)"/>
<path d="M0 0 C0.99 0 1.98 0 3 0 C2.1875 1.9375 2.1875 1.9375 1 4 C0.01 4.33 -0.98 4.66 -2 5 C-2.2475 5.598125 -2.495 6.19625 -2.75 6.8125 C-4.7248533 10.26849327 -7.45017254 11.25622511 -11 13 C-11.99 13 -12.98 13 -14 13 C-14 12.01 -14 11.02 -14 10 C-13.32453125 9.69707031 -12.6490625 9.39414062 -11.953125 9.08203125 C-6.76174573 6.64388347 -3.39546037 4.75364451 0 0 Z " fill="#0F2A45" transform="translate(1115,718)"/>
<path d="M0 0 C-1.19625 0.515625 -2.3925 1.03125 -3.625 1.5625 C-7.69933536 3.56354769 -10.06794844 6.01213257 -12.7734375 9.609375 C-13.17820312 10.06828125 -13.58296875 10.5271875 -14 11 C-14.66 11 -15.32 11 -16 11 C-17.62514468 12.45833358 -17.62514468 12.45833358 -19 14 C-17.64848129 9.83645043 -15.93130608 7.65196884 -12.625 4.8125 C-11.85414062 4.13832031 -11.08328125 3.46414063 -10.2890625 2.76953125 C-6.61652853 -0.06947539 -4.57237445 -1.63299087 0 0 Z " fill="#4DB8E8" transform="translate(1048,547)"/>
<path d="M0 0 C0 0.99 0 1.98 0 3 C-0.84256348 2.84152588 -1.68512695 2.68305176 -2.55322266 2.51977539 C-6.11378621 1.98284099 -9.55000344 1.79123921 -13.1484375 1.68359375 C-13.80582916 1.66281265 -14.46322083 1.64203156 -15.14053345 1.62062073 C-17.21859362 1.55579247 -19.29676856 1.49655436 -21.375 1.4375 C-22.79298011 1.39425112 -24.21094907 1.35063491 -25.62890625 1.30664062 C-29.0858188 1.20018082 -32.54285706 1.09873016 -36 1 C-36 0.67 -36 0.34 -36 0 C-31.81258759 -0.16891611 -27.62505782 -0.33473105 -23.4375 -0.5 C-22.25607422 -0.54769531 -21.07464844 -0.59539063 -19.85742188 -0.64453125 C-3.8203125 -1.2734375 -3.8203125 -1.2734375 0 0 Z " fill="#0F2943" transform="translate(213,544)"/>
<path d="M0 0 C6.93782916 2.32878181 11.89372324 5.61402236 15.984375 11.75 C15.654375 12.74 15.324375 13.73 14.984375 14.75 C14.53707031 14.20730469 14.08976562 13.66460937 13.62890625 13.10546875 C9.02267137 7.55938921 9.02267137 7.55938921 2.984375 3.75 C1.994375 3.75 1.004375 3.75 -0.015625 3.75 C-0.015625 3.09 -0.015625 2.43 -0.015625 1.75 C-1.665625 1.75 -3.315625 1.75 -5.015625 1.75 C-2.015625 -0.25 -2.015625 -0.25 0 0 Z " fill="#98A4EB" transform="translate(358.015625,490.25)"/>
<path d="M0 0 C0 0.33 0 0.66 0 1 C-0.56589844 1.12117188 -1.13179687 1.24234375 -1.71484375 1.3671875 C-2.81505859 1.61855469 -2.81505859 1.61855469 -3.9375 1.875 C-4.66839844 2.03742188 -5.39929688 2.19984375 -6.15234375 2.3671875 C-8.20700294 2.82961523 -8.20700294 2.82961523 -9 5 C-10.71400167 5.69219298 -12.42824696 6.38379878 -14.14453125 7.0703125 C-16.98950042 8.49579179 -18.90419672 10.65015996 -21 13 C-20.1704641 7.60801664 -16.180073 5.09221086 -12 2 C-7.93254324 -0.45378271 -4.66702728 -1.55567576 0 0 Z " fill="#C98CE8" transform="translate(757,383)"/>
<path d="M0 0 C-0.66 0 -1.32 0 -2 0 C-2 0.66 -2 1.32 -2 2 C-2.94875 2.268125 -3.8975 2.53625 -4.875 2.8125 C-8.25267273 3.74986588 -8.25267273 3.74986588 -10 7 C-11.66279327 8.0064275 -13.32983484 9.00585407 -15 10 C-16.36984198 11.29579647 -17.7151049 12.61992749 -19 14 C-17.64848129 9.83645043 -15.93130608 7.65196884 -12.625 4.8125 C-11.85414063 4.13832031 -11.08328125 3.46414063 -10.2890625 2.76953125 C-6.64328693 -0.04879013 -4.50970425 -1.61060866 0 0 Z " fill="#8AA3E8" transform="translate(902,491)"/>
<path d="M0 0 C0.66 0.33 1.32 0.66 2 1 C-1.44615385 6.78461538 -1.44615385 6.78461538 -4.25 7.875 C-4.8275 7.91625 -5.405 7.9575 -6 8 C-6.19916016 8.85851562 -6.19916016 8.85851562 -6.40234375 9.734375 C-6.99380317 11.97650875 -7.73288854 14.08579619 -8.5625 16.25 C-8.83191406 16.95640625 -9.10132813 17.6628125 -9.37890625 18.390625 C-9.58386719 18.92171875 -9.78882813 19.4528125 -10 20 C-10.66 19.67 -11.32 19.34 -12 19 C-9.98926941 10.72727988 -5.91143403 5.91143403 0 0 Z " fill="#D397F5" transform="translate(433,387)"/>
<path d="M0 0 C0.66 0 1.32 0 2 0 C2 0.99 2 1.98 2 3 C2.66 3 3.32 3 4 3 C4.268125 3.763125 4.53625 4.52625 4.8125 5.3125 C5.95800967 7.90496926 6.99711522 9.08815544 9 11 C9 11.66 9 12.32 9 13 C9.5775 13.28875 10.155 13.5775 10.75 13.875 C12.83333333 14.91666667 14.91666667 15.95833333 17 17 C17 17.66 17 18.32 17 19 C11.08661317 17.2080646 6.62126908 13.68586182 3.44140625 8.41796875 C0 1.60339943 0 1.60339943 0 0 Z " fill="#33A7E6" transform="translate(135,709)"/>
<path d="M0 0 C0.66 0.33 1.32 0.66 2 1 C1.68289063 1.93972656 1.36578125 2.87945312 1.0390625 3.84765625 C-0.33579171 8.65964599 -0.45301968 13.46081948 -0.625 18.4375 C-0.66367187 19.35982422 -0.70234375 20.28214844 -0.7421875 21.23242188 C-0.83568676 23.48809143 -0.9214391 25.74376916 -1 28 C-1.33 28 -1.66 28 -2 28 C-2.25727012 24.64737831 -2.47567367 21.29327507 -2.6875 17.9375 C-2.79674805 16.52307617 -2.79674805 16.52307617 -2.90820312 15.08007812 C-3.26006403 9.13983811 -2.83802638 5.260198 0 0 Z " fill="#758EEA" transform="translate(882,504)"/>
<path d="M0 0 C7.70784686 -0.67024755 14.65967358 1.80004829 20.625 6.75 C21.40875 7.4925 22.1925 8.235 23 9 C22.01 9.33 21.02 9.66 20 10 C19.236875 9.278125 18.47375 8.55625 17.6875 7.8125 C12.93603729 3.46205589 6.08922817 2.49311211 0 1 C0 0.67 0 0.34 0 0 Z " fill="#DD7EC7" transform="translate(651,514)"/>
<path d="M0 0 C7.34052376 2.00640983 11.7699112 4.45732196 16.9375 10.125 C17.288125 10.74375 17.63875 11.3625 18 12 C17.67 12.99 17.34 13.98 17 15 C16.52691406 14.39671875 16.05382812 13.7934375 15.56640625 13.171875 C10.92880093 7.56697189 6.92725516 4.29304974 0 2 C0 1.34 0 0.68 0 0 Z " fill="#83A7E6" transform="translate(958,490)"/>
<path d="M0 0 C0.66 0.33 1.32 0.66 2 1 C1.68383092 7.16529701 -1.49215061 11.17268433 -5 16 C-5.61328125 14.1796875 -5.61328125 14.1796875 -6 12 C-4.71810412 9.96664791 -3.37843192 7.96918846 -2 6 C-0.75675853 2.7750792 -0.75675853 2.7750792 0 0 Z " fill="#1A1F51" transform="translate(378,760)"/>
<path d="M0 0 C4.50029595 2.18196167 7.20115264 5.29911446 10.3515625 9.0625 C11.83034095 10.80059031 13.36273519 12.41234927 15 14 C14.67 14.66 14.34 15.32 14 16 C13.48050781 15.46890625 12.96101563 14.9378125 12.42578125 14.390625 C7.94336149 9.84926753 7.94336149 9.84926753 3.0625 5.75 C0.82242988 3.84933445 0.30846231 2.87898153 0 0 Z " fill="#222738" transform="translate(96,1150)"/>
<path d="M0 0 C0.66 0.66 1.32 1.32 2 2 C1.72832465 6.79959781 0.74562195 10.06062938 -2 14 C-2.66 13.01 -3.32 12.02 -4 11 C-3.3203125 8.30078125 -3.3203125 8.30078125 -2.125 5.3125 C-1.73570312 4.31863281 -1.34640625 3.32476563 -0.9453125 2.30078125 C-0.63335938 1.54152344 -0.32140625 0.78226563 0 0 Z " fill="#17274E" transform="translate(980,758)"/>
<path d="M0 0 C0.33 0.99 0.66 1.98 1 3 C0.67 3.66 0.34 4.32 0 5 C-0.66 5 -1.32 5 -2 5 C-2.226875 5.804375 -2.45375 6.60875 -2.6875 7.4375 C-3.3371875 8.7059375 -3.3371875 8.7059375 -4 10 C-6.625 10.8125 -6.625 10.8125 -9 11 C-8.60167969 10.54109375 -8.20335937 10.0821875 -7.79296875 9.609375 C-5.08857938 6.47728415 -2.42008229 3.36122541 0 0 Z " fill="#E3E4E7" transform="translate(1171,1137)"/>
<path d="M0 0 C3.85925077 4.73635322 5.2723974 8.69550771 5.125 14.8125 C5.10695313 15.78832031 5.08890625 16.76414062 5.0703125 17.76953125 C5.03550781 18.87361328 5.03550781 18.87361328 5 20 C4.67 20 4.34 20 4 20 C4 16.7 4 13.4 4 10 C3.34 10 2.68 10 2 10 C0.68373308 6.38026598 0 3.90432869 0 0 Z " fill="#828ED7" transform="translate(374,503)"/>
<path d="M0 0 C0.66 0.33 1.32 0.66 2 1 C-1.11016455 4.28788824 -4.01618925 6.83735988 -8 9 C-8.66 8.34 -9.32 7.68 -10 7 C-6.7 4.69 -3.4 2.38 0 0 Z " fill="#272C3D" transform="translate(142,64)"/>
<path d="M0 0 C1.44010481 0.25662245 2.8770687 0.53090821 4.3125 0.8125 C5.11300781 0.96332031 5.91351563 1.11414063 6.73828125 1.26953125 C9.23445587 2.07572236 10.32422106 3.02052002 12 5 C8.6699024 6.11003253 8.02156559 5.9343162 4.875 4.75 C4.17117188 4.49734375 3.46734375 4.2446875 2.7421875 3.984375 C1 3 1 3 0 0 Z " fill="#1F2550" transform="translate(354,487)"/>
<path d="M0 0 C-2.1732987 2.4992935 -3.68300548 3.60976535 -7 4 C-9.75 3.5625 -9.75 3.5625 -12 3 C-3.7826087 -1.26086957 -3.7826087 -1.26086957 0 0 Z " fill="#985EED" transform="translate(824,872)"/>
<path d="M0 0 C1.38609004 3.15020465 0.89180331 4.31918022 -0.25 7.6875 C-2 11 -2 11 -5 12 C-3.68938409 7.76570244 -2.05643741 3.92592596 0 0 Z " fill="#32384A" transform="translate(52,164)"/>
<path d="M0 0 C0.99 0.33 1.98 0.66 3 1 C1.02 3.31 -0.96 5.62 -3 8 C-3.99 7.67 -4.98 7.34 -6 7 C-4.02 4.69 -2.04 2.38 0 0 Z " fill="#22273B" transform="translate(87,112)"/>
<path d="M0 0 C0.99 0.33 1.98 0.66 3 1 C2.34 1 1.68 1 1 1 C0.67 1.99 0.34 2.98 0 4 C-1.62652316 5.70586575 -3.29006566 7.3777546 -5 9 C-5.99 8.67 -6.98 8.34 -8 8 C-5.36 5.36 -2.72 2.72 0 0 Z " fill="#F2F2F4" transform="translate(1160,1150)"/>
<path d="M0 0 C0.66 0.66 1.32 1.32 2 2 C-1.625 8.875 -1.625 8.875 -5 10 C-3.84414715 6.08788267 -2.64465038 3.1254959 0 0 Z " fill="#1B234E" transform="translate(883,499)"/>
<path d="M0 0 C0.66 0.33 1.32 0.66 2 1 C-3.0940919 7.70459519 -3.0940919 7.70459519 -6.875 8.9375 C-7.57625 8.958125 -8.2775 8.97875 -9 9 C-6 6 -3 3 0 0 Z " fill="#E4E4E8" transform="translate(1145,1164)"/>
<path d="M0 0 C0.66 0.66 1.32 1.32 2 2 C-0.31 3.65 -2.62 5.3 -5 7 C-5.66 6.34 -6.32 5.68 -7 5 C-4.69 3.35 -2.38 1.7 0 0 Z " fill="#282C3F" transform="translate(128,74)"/>
<path d="M0 0 C0.66 0.33 1.32 0.66 2 1 C1.71125 1.515625 1.4225 2.03125 1.125 2.5625 C-0.28780027 5.62356725 -1.1248517 8.74944918 -2 12 C-2.66 11.67 -3.32 11.34 -4 11 C-3.52269162 9.5410574 -3.04308958 8.08286504 -2.5625 6.625 C-2.29566406 5.81289063 -2.02882813 5.00078125 -1.75390625 4.1640625 C-1 2 -1 2 0 0 Z " fill="#BF87E4" transform="translate(425,395)"/>
<path d="M0 0 C0.66 0.33 1.32 0.66 2 1 C0.02 3.31 -1.96 5.62 -4 8 C-4.99 7.67 -5.98 7.34 -7 7 C-4.69 4.69 -2.38 2.38 0 0 Z " fill="#2B2F41" transform="translate(110,88)"/>
<path d="M0 0 C0.99 0 1.98 0 3 0 C2.67 2.31 2.34 4.62 2 7 C1.01 6.67 0.02 6.34 -1 6 C-0.67 4.02 -0.34 2.04 0 0 Z " fill="#201B4A" transform="translate(529,849)"/>
<path d="M0 0 C0.99 0.66 1.98 1.32 3 2 C0.1875 3.5625 0.1875 3.5625 -3 5 C-3.99 4.67 -4.98 4.34 -6 4 C-6 3.34 -6 2.68 -6 2 C-3.1875 0.875 -3.1875 0.875 0 0 Z " fill="#192B54" transform="translate(964,780)"/>
<path d="M0 0 C-1 2 -1 2 -2.84765625 2.6328125 C-3.57855469 2.79523437 -4.30945313 2.95765625 -5.0625 3.125 C-6.16271484 3.37636719 -6.16271484 3.37636719 -7.28515625 3.6328125 C-7.85105469 3.75398437 -8.41695312 3.87515625 -9 4 C-9 3.01 -9 2.02 -9 1 C-5.8035914 -0.06546953 -3.34252724 -0.07427838 0 0 Z " fill="#2C1943" transform="translate(602,512)"/>
<path d="M0 0 C1.1875 1.5625 1.1875 1.5625 2 4 C0.625 7.75 0.625 7.75 -1 11 C-1.33 11 -1.66 11 -2 11 C-2.19622241 6.78121808 -1.80230168 3.82989106 0 0 Z " fill="#241E4C" transform="translate(729,400)"/>
<path d="M0 0 C0.66 0.66 1.32 1.32 2 2 C1.75 5.0625 1.75 5.0625 1 8 C0.01 8.495 0.01 8.495 -1 9 C-2.25541557 5.23375329 -1.37061958 3.62811066 0 0 Z " fill="#2A1F55" transform="translate(527,855)"/>
<path d="M0 0 C0.66 0.66 1.32 1.32 2 2 C0.35 3.65 -1.3 5.3 -3 7 C-3.99 6.67 -4.98 6.34 -6 6 C-4.02 4.02 -2.04 2.04 0 0 Z " fill="#262A3F" transform="translate(96,102)"/>
<path d="M0 0 C2.31 1.98 4.62 3.96 7 6 C6.01 7.485 6.01 7.485 5 9 C3.02 6.36 1.04 3.72 -1 1 C-0.67 0.67 -0.34 0.34 0 0 Z " fill="#331B4C" transform="translate(580,749)"/>
<path d="M0 0 C0.99 0.495 0.99 0.495 2 1 C2.40729228 3.32156597 2.74438677 5.6568787 3 8 C2.01 8 1.02 8 0 8 C0 5.36 0 2.72 0 0 Z " fill="#2C1A45" transform="translate(573,733)"/>
<path d="M0 0 C0.66 0.33 1.32 0.66 2 1 C1.01 3.97 0.02 6.94 -1 10 C-1.33 10 -1.66 10 -2 10 C-2.17942163 6.05272412 -2.09350689 3.4019487 0 0 Z " fill="#8299E7" transform="translate(882,504)"/>
<path d="M0 0 C1.46726798 3.81489674 0.43336419 6.29011622 -1 10 C-1.33 10 -1.66 10 -2 10 C-2.25 3.375 -2.25 3.375 0 0 Z " fill="#829BE8" transform="translate(281,502)"/>
<path d="M0 0 C0.6875 1.6875 0.6875 1.6875 1 4 C-0.3125 6.75 -0.3125 6.75 -2 9 C-2.66 9 -3.32 9 -4 9 C-2.94124926 5.59687262 -1.99097846 2.98646769 0 0 Z " fill="#323649" transform="translate(60,149)"/>
<path d="M0 0 C0.66 0.33 1.32 0.66 2 1 C0.38405168 3.04119788 -1.2856382 5.04072937 -3 7 C-3.66 7 -4.32 7 -5 7 C-3.70700306 4.11562221 -2.34058637 2.12780579 0 0 Z " fill="#2A2E3F" transform="translate(118,81)"/>
<path d="M0 0 C-1.12073862 0.83905565 -2.24674547 1.67107831 -3.375 2.5 C-4.00148438 2.9640625 -4.62796875 3.428125 -5.2734375 3.90625 C-7 5 -7 5 -9 5 C-8 2 -8 2 -5.625 0.25 C-3 -1 -3 -1 0 0 Z " fill="#262B39" transform="translate(1123,1183)"/>
<path d="M0 0 C0.66 0.66 1.32 1.32 2 2 C-0.97 4.475 -0.97 4.475 -4 7 C-4 4 -4 4 -2 1.8125 C-1.34 1.214375 -0.68 0.61625 0 0 Z " fill="#281F56" transform="translate(832,865)"/>
<path d="M0 0 C0.33 0.66 0.66 1.32 1 2 C1.66 2.33 2.32 2.66 3 3 C1.625 5.5 1.625 5.5 0 8 C-0.66 8 -1.32 8 -2 8 C-1.34 5.36 -0.68 2.72 0 0 Z " fill="#341951" transform="translate(681,737)"/>
</svg>
